<?xml version="1.0" encoding="utf-8"?>
<!-- Generator: Adobe Illustrator 14.0.0, SVG Export Plug-In  -->
<!DOCTYPE svg PUBLIC "-//W3C//DTD SVG 1.1//EN" "http://www.w3.org/Graphics/SVG/1.1/DTD/svg11.dtd" [
	<!ENTITY ns_flows "http://ns.adobe.com/Flows/1.0/">
]>
<svg version="1.1"
	 xmlns="http://www.w3.org/2000/svg" xmlns:xlink="http://www.w3.org/1999/xlink" xmlns:a="http://ns.adobe.com/AdobeSVGViewerExtensions/3.0/"
	 x="0px" y="0px" width="64px" height="64px" viewBox="-1.872 -4.044 64 64" enable-background="new -1.872 -4.044 64 64"
	 xml:space="preserve">
<defs>
</defs>
<path fill-rule="evenodd" clip-rule="evenodd" fill="#FFFFFF" d="M0.942,43.317l3.557-5.546l11.771-23.802l4.813-11.51l35.214-0.671
	c0,0-0.268,4.229,0.36,5.379s1.003,3.524,2.196,4.447s1.36,3.191,1.36,3.191l-20.14,39.707c0,0,0.261,0.262-2.931,1.36
	s-8.266-1.57-8.266-1.57l-13.34-0.47l-7.376-2.773l-4.919-0.313l-1.696-2.958L0.942,43.317z"/>
<polygon fill-rule="evenodd" clip-rule="evenodd" fill="#E9C248" points="35.104,46.142 56.297,1.788 45.672,1.517 37.144,1.831
	22.13,2.407 19.619,3.035 10.045,22.286 1.797,40.038 2.197,42.166 13.797,43.538 25.047,45.538 "/>
<path fill-rule="evenodd" clip-rule="evenodd" d="M58.069,0.889c0.004-0.004-0.003-0.052,0-0.052
	C58.321,0.792,57.821,1.173,58.069,0.889z"/>
<path fill-rule="evenodd" clip-rule="evenodd" d="M56.029,7.638c0.058,0.377-0.5,0.644-0.261,1.098
	c-0.362,0.248-0.455,0.766-0.732,1.099c0.151,0.937-0.413,1.156-0.523,1.831c-0.537-0.232-0.006-0.735,0.104-1.046
	c0.139-0.388,0.16-0.718,0.314-1.099c0.274-0.676,0.567-1.372,0.942-1.883C55.925,7.638,55.977,7.638,56.029,7.638z"/>
<path fill-rule="evenodd" clip-rule="evenodd" d="M57.39,11.614c0.061-0.009,0.093,0.011,0.105,0.052
	c0.061,0.606-0.272,1.259-0.681,1.57c0.043,0.374-0.052,0.611-0.366,0.628C56.472,13.026,57.067,12.325,57.39,11.614z"/>
<path fill-rule="evenodd" clip-rule="evenodd" d="M54.616,12.398c0.022,0.679-0.128,1.323-0.208,2.041
	c-0.359,0.077-0.264,0.609-0.681,0.628c-0.122,0.383-0.291,0.72-0.47,1.046c-0.087,0.141-0.252,0.202-0.314,0.366
	c0.04,0.406-0.17,0.563-0.105,0.994c-0.372-0.006-0.255,0.477-0.574,0.523c-0.348-0.65,0.438-1.288,0.366-1.831
	c0.403-0.277,0.502-0.857,0.889-1.151c0.047-0.248,0.017-0.405,0.104-0.627c0.073-0.182,0.238-0.241,0.314-0.418
	c0.111-0.258,0.016-0.584,0.105-0.837C54.15,12.824,54.485,12.646,54.616,12.398z"/>
<path fill-rule="evenodd" clip-rule="evenodd" d="M53.466,17.159c0.088,0.237,0.055,0.306,0.104,0.523
	c-0.557,0.315-0.356,1.336-1.203,1.464c-0.217-0.363,0.124-0.728,0.419-0.889C52.939,17.818,52.99,17.276,53.466,17.159z"/>
<path fill-rule="evenodd" clip-rule="evenodd" d="M51.844,19.095c-0.268,0.365-0.569,0.949-0.313,1.412
	c0,0.246-0.29,0.199-0.42,0.314c-0.212,0.642-0.53,1.178-0.94,1.622c-0.059,0.972-0.509,1.55-1.048,2.041
	c-0.021,0.126,0.097,0.114,0.054,0.261c-0.427,0.289-0.684,0.748-0.838,1.308c-0.097,0.042-0.19,0.087-0.313,0.105
	c-0.043,0.181,0.078,0.201,0.053,0.366c-0.314,0.802-0.654,1.579-1.256,2.093c-0.009,0.358-0.203,0.528-0.156,0.941
	c-0.252,0.098-0.393,0.306-0.367,0.681c-0.204,0.126-0.326,0.336-0.366,0.627c-0.79,0.354-0.617,1.635-0.837,2.302
	c-0.015,0.206,0.223,0.16,0.21,0.366c-0.294,0.405-0.346,1.052-0.733,1.36c-0.034,0.208,0.139,0.21,0.105,0.419
	c-0.339,0.062-0.336,0.467-0.681,0.523c-0.028,0.722-0.61,0.888-0.628,1.621c-0.211,0.229-0.245,0.513-0.262,0.784
	c-0.138-0.015-0.041,0.203-0.209,0.158c0.101,0.88-0.805,0.989-0.628,1.778c-0.444,0.113-0.487,0.629-0.68,0.994
	c-0.056,0.194,0.13,0.148,0.104,0.313c-0.016,0.215-0.184,0.307-0.053,0.524c-0.549,0.709-1.122,1.543-1.256,2.511
	c-0.1,0.022-0.131,0.112-0.261,0.105c0.086,0.372-0.351,0.422-0.419,0.784c-0.521,0.114-0.582,0.797-0.889,1.255
	c-0.042,0.183,0.078,0.203,0.052,0.366c-0.381-0.139-0.622,0.229-0.942,0.315c-0.16-0.819,0.59-1.101,0.681-1.832
	c0.286-0.132,0.398-0.438,0.68-0.576c-0.011-0.167,0.093-0.221,0.053-0.418c0.223-0.389,0.468-0.753,0.628-1.203
	c0.271-0.104,0.311-0.596,0.523-0.89c0.157-0.218,0.123-0.114,0.209-0.418c0.064-0.229,0.042-0.488,0.105-0.837
	c0.068-0.39,0.385-0.675,0.365-1.1c0.312-0.258,0.564-0.654,0.732-1.046c0.031-0.073-0.03-0.187,0-0.263
	c0.165-0.404,0.587-0.791,0.471-1.255c0.21-0.435,0.487-0.803,0.628-1.308c0.518-0.283,0.521-1.083,0.994-1.412
	c-0.03-0.075-0.082-0.128-0.157-0.157c0.247-0.119,0.305-0.428,0.472-0.628c0.082-1.097,0.274-1.642,0.732-2.459
	c-0.083-0.782,0.62-1.22,0.628-1.935c0.266-0.188,0.481-0.424,0.522-0.837c0.304-0.335,0.592-0.806,0.628-1.255
	c0.544-0.391,0.432-1.13,0.994-1.517c-0.062-0.339,0.243-0.518,0.366-0.732c0.056-0.098-0.003-0.215,0.052-0.314
	c0.141-0.257,0.434-0.4,0.576-0.628c0.12-0.192,0.039-0.485,0.313-0.575c0.044-0.147-0.072-0.135-0.052-0.262
	c0.161-0.066,0.154-0.299,0.313-0.366c-0.056-0.235,0.029-0.458,0.158-0.627c0.011-0.015,0.084,0.078,0.104,0.052
	c0.188-0.227,0.35-0.543,0.575-0.837c0.026-0.603,0.654-0.856,0.366-1.464c0.405-0.083,0.518-0.459,0.575-0.889
	c0.168-0.129,0.32-0.274,0.472-0.419C51.804,18.892,51.744,19.074,51.844,19.095z"/>
<path fill-rule="evenodd" clip-rule="evenodd" d="M53.676,19.513c0.152,0.615-0.257,0.964-0.472,1.36
	c-0.101,0.187-0.112,0.431-0.209,0.628c-0.21,0.427-0.668,0.81-0.628,1.413c-0.184,0.147-0.254,0.408-0.523,0.471
	c0.031,0.292-0.119,0.402-0.104,0.68c-0.12,0.089-0.21,0.208-0.313,0.313c-0.015,0.386-0.217,0.586-0.419,0.785
	c-0.083,0.404-0.184,0.792-0.47,0.994c-0.126,0.258-0.061,0.707-0.472,0.68c-0.156-0.576,0.332-0.719,0.313-1.203
	c0.313-0.023,0.158-0.22,0.263-0.419c0.034-0.068,0.19-0.118,0.208-0.157c0.088-0.182,0.056-0.279,0.157-0.47
	c0.339-0.639,0.808-1.342,0.891-2.25c0.144-0.083,0.274-0.178,0.366-0.314c0.091-0.156,0.005-0.321,0.052-0.471
	c0.081-0.262,0.387-0.496,0.471-0.732c0.06-0.167,0.001-0.352,0.052-0.523c0.092-0.309,0.301-0.583,0.472-0.837
	C53.448,19.461,53.607,19.442,53.676,19.513z"/>
<path fill-rule="evenodd" clip-rule="evenodd" fill="#FFFFFF" d="M54.722,26.105c0.241,0.036-0.081,0.174,0.053,0.209
	c0.01,0.045-0.021,0.05-0.053,0.053c-0.035,0-0.069,0-0.105,0c0.033-0.046,0.064-0.093,0-0.104
	C54.651,26.209,54.737,26.208,54.722,26.105z"/>
<path fill-rule="evenodd" clip-rule="evenodd" d="M49.385,28.25c-0.142,0.284,0.066,0.614,0,0.889
	c-0.034,0.15-0.238,0.254-0.365,0.472c-0.052,0.087-0.011,0.203-0.053,0.262c-0.021,0.029-0.138,0.015-0.156,0.052
	c-0.047,0.097,0,0.266-0.054,0.418c-0.054,0.159-0.305,0.511-0.366,0.785c-0.048,0.219,0.041,0.506-0.313,0.628
	c0,0.087,0,0.175,0,0.262c-0.531,0.307-0.363,1.312-0.838,1.674c0.121,0.591-0.316,0.772-0.262,1.308
	c-0.137,0.116-0.176,0.132-0.313,0.157c-0.017,0.253-0.054,0.214-0.054,0.523c-0.478,0.795-0.792,1.754-1.046,2.772
	c-0.555,0.631-0.997,1.374-1.465,2.093c-0.215-0.075,0.104-0.29,0-0.576c0.289-0.052,0.249-0.439,0.366-0.628
	c0.128-0.206,0.346-0.302,0.472-0.47c0.16-0.799,0.515-1.402,0.679-2.197c0.248-0.181,0.437-0.756,0.628-1.203
	c0.055-0.127,0.035-0.151,0.105-0.366c0.036-0.114,0.284-0.323,0.209-0.628c0.223-0.196,0.215-0.623,0.472-0.785
	c0.019-0.089-0.042-0.099-0.105-0.104c0.216-0.377,0.318-0.868,0.628-1.151c0.006-0.093-0.064-0.11-0.053-0.209
	c0.068-0.21,0.234-0.324,0.314-0.523c-0.085-0.169-0.024-0.282,0-0.47c0.095-0.132,0.236-0.217,0.366-0.314
	c0.217-0.651,0.506-1.085,0.574-1.779c0.291-0.145,0.293-0.58,0.42-0.889C49.246,28.25,49.315,28.25,49.385,28.25z"/>
<path fill-rule="evenodd" clip-rule="evenodd" fill="#FFFFFF" d="M52.21,29.506C52.096,29.666,51.875,29.446,52.21,29.506
	L52.21,29.506z"/>
<path fill-rule="evenodd" clip-rule="evenodd" fill="#FFFFFF" d="M52.264,30.761C52.147,30.921,51.928,30.701,52.264,30.761
	L52.264,30.761z"/>
<path fill-rule="evenodd" clip-rule="evenodd" d="M43.892,39.34c0.018,0.478,0.112,0.803-0.104,1.309
	c0.043,0.126,0.216-0.165,0.314,0c-0.099,0.32-0.16,0.676-0.418,0.836c0.348,0.837-0.283,1.733-0.419,2.25
	c-0.098,0.094-0.196,0.188-0.313,0.262c0.006,0.234-0.184,0.271-0.158,0.523c-0.634,0.534-0.637,1.698-1.15,2.354
	c0.093,0.441-0.169,0.528-0.156,0.89c-0.521,0.212-0.313,1.15-0.785,1.412c-0.142-0.299-0.068-0.516,0.105-0.785
	c0.154-0.239,0.172-0.742,0.47-0.993c0.075-0.577,0.288-0.897,0.314-1.414c0.169,0.065,0.039-0.167,0.21-0.104
	c-0.006-0.194-0.06-0.149,0-0.314c-0.358-0.025-0.192,0.47-0.472,0.524c-0.188-0.034-0.033-0.341,0-0.471
	c0.083-0.331,0.234-0.705,0.472-0.891c0-0.226,0.12-0.331,0.104-0.575c0.146-0.121,0.275-0.474,0.209-0.732
	c0.52-0.501,0.689-1.601,0.942-2.249c-0.01-0.148-0.096-0.218-0.104-0.366c0.313-0.419,0.34-1.125,0.68-1.518
	C43.778,39.246,43.767,39.362,43.892,39.34z M42.846,42.793c0.148,0.428-0.282,0.626-0.418,0.994c-0.044,0.12,0.091,0.192,0,0.262
	c-0.132,0.1-0.085,0.137-0.157,0.314c0.147,0.042,0.136-0.074,0.261-0.053c0.102-0.416,0.552-0.664,0.472-1.1
	c0.272-0.118,0.236-0.72,0.314-1.046C42.969,42.183,43.084,42.666,42.846,42.793z"/>
<path fill-rule="evenodd" clip-rule="evenodd" fill="#FFFFFF" d="M43.317,42.166c-0.078,0.326-0.042,0.928-0.314,1.046
	c0.08,0.436-0.37,0.684-0.472,1.1c-0.125-0.021-0.113,0.095-0.261,0.053c0.072-0.178,0.025-0.215,0.157-0.314
	c0.091-0.069-0.044-0.142,0-0.262c0.136-0.368,0.566-0.566,0.418-0.994C43.084,42.666,42.969,42.183,43.317,42.166z"/>
<path fill-rule="evenodd" clip-rule="evenodd" d="M23.96,46.77c0.122,0.203,0.423,0.321,0.681,0.366
	c0.904,0.155,2.178-0.022,2.877,0.366c1.05-0.378,1.75,0.427,2.824,0.366c0.101,0.146,0.308,0.183,0.314,0.418
	c-0.274,0.159-0.621-0.067-0.889-0.156c-0.244-0.082-0.61-0.183-0.838-0.21c-0.537-0.064-1.089,0.086-1.517-0.156
	c-0.939,0.265-2.102,0.028-3.034,0.053c-0.186,0.081-0.031-0.179-0.156-0.158c-0.366-0.039-0.474,0.037-0.785,0.052
	c-0.003-0.206-0.25-0.169-0.315-0.313c-0.729,0.071-1.404-0.402-1.935-0.052c-0.136-0.168-0.183-0.06-0.522-0.105
	c-0.124-0.016-0.223-0.107-0.314-0.104c-0.394,0.01-0.924,0.381-1.098-0.105c-0.879,0.088-1.4-0.405-2.146-0.156
	c-0.265-0.269-1.109-0.244-1.36-0.104c-0.007-0.206-0.272-0.033-0.418-0.054c-0.089-0.01-0.14-0.096-0.21-0.104
	c-0.118-0.015-0.254,0.016-0.366,0c-0.222-0.029-0.479-0.071-0.784-0.104c-0.191-0.021-0.456,0.008-0.628-0.053
	c-0.086-0.03-0.138-0.139-0.209-0.157c-0.545-0.141-1.275-0.134-1.726,0c-0.205,0.03-0.184-0.165-0.314-0.208
	c-0.455-0.104-1.007-0.109-1.412-0.262c-0.094,0.063-0.305,0.009-0.366,0.104c-0.689-0.128-1.385-0.335-2.093-0.313
	c-0.337,0.01-0.657,0.134-0.994,0.156c-0.396,0.025-0.728-0.075-1.099-0.104c-0.055-0.189-0.34-0.149-0.262-0.472
	c1.015-0.077,2.328,0.052,3.453,0c0.111-0.21,0.29-0.012,0.471,0c0.558,0.041,1.316,0.015,1.674,0.158
	c0.078-0.062,0.214-0.065,0.262-0.158c0.174,0.375,0.977,0.126,1.256,0.158c0.2,0.007,0.269,0.15,0.366,0.262
	c0.605-0.012,1.115,0.229,1.675,0.261c0.077,0.005,0.179-0.062,0.261-0.052c0.43,0.05,0.831,0.284,1.308,0.365
	c0.147-0.008,0.218-0.097,0.366-0.104c0.444,0.245,1.088,0.17,1.517,0.104c0.475,0.291,1.225-0.044,1.675,0.314
	c1.023-0.081,1.743,0.021,2.982,0.104c0.465,0.319,1.053,0.068,1.517,0.365C23.843,47.001,23.885,46.869,23.96,46.77z"/>
<path fill-rule="evenodd" clip-rule="evenodd" d="M36.464,48.391c0.087,0.082,0.022,0.244-0.053,0.313
	c0.22,0.123,0.403,0.524,0.314,0.786c0.181,0.289,0.511,0.43,0.574,0.837c0.155,0.053,0.3,0.118,0.314,0.313
	c0.355,0.012,0.467,0.267,0.785,0.314c-0.088,0.18,0.083,0.305,0.156,0.47c0.006,0.36,0,0.557,0.314,0.681
	c-0.1,0.252-0.091,0.351-0.21,0.628c0.113,0.356,0.327,0.614,0.314,1.099c-0.289,0.269-0.154,0.962-0.471,1.202
	c-0.491-0.025-0.106-0.453-0.156-0.784c-0.148-0.201-0.556-0.143-0.786-0.261c0.004-0.189,0.131-0.253,0.158-0.419
	c-0.194-0.54-0.247-0.963-0.42-1.569c-0.128-0.202-0.56-0.103-0.679-0.314c-0.006-0.365,0.012-0.407,0.104-0.628
	c-0.271-0.306-0.536-0.613-0.838-0.89c-0.076-0.27-0.017-0.504-0.209-0.679c0.15-0.263,0.157-0.348,0.157-0.733
	C36.104,48.695,36.112,48.372,36.464,48.391z"/>
<path fill-rule="evenodd" clip-rule="evenodd" d="M32.383,51.425c-0.104,0.255-0.56,0.188-0.732,0.104
	c-0.553,0.145-0.929,0.183-1.569,0.054c-0.969-0.196-2.41-0.274-3.558-0.262c-0.016-0.107-0.104-0.14-0.156-0.21
	c-0.593-0.044-1.057,0.066-1.413-0.156c-0.484,0.051-0.724-0.148-1.202-0.104c-0.106,0.008-0.159,0.114-0.262,0.104
	c-0.033-0.004-0.115-0.093-0.21-0.104c-0.432-0.06-0.846-0.444-1.203,0c-0.135-0.005-0.074-0.205-0.209-0.21
	c-0.215,0.012-0.276,0.178-0.471,0.21c-0.063-0.321-0.619-0.148-0.784-0.366c-0.43,0.106-0.652-0.1-1.1-0.105
	c-0.16-0.002-0.125,0.188-0.314,0.157c-0.198,0.043-0.16-0.153-0.313-0.157c-0.151-0.011-0.267,0.013-0.314,0.105
	c-0.412-0.28-1.161-0.086-1.518-0.315c-0.368,0.111-0.815,0.144-1.099-0.052c-0.799-0.017-1.9,0.186-2.511-0.209
	c-0.643,0.08-1.084-0.154-1.778-0.262c-0.169,0.047-0.108-0.136-0.21-0.156c-0.432,0.082-0.535-0.162-0.889-0.157
	c0.035-0.161,0.035-0.101,0-0.261c0.335-0.146,0.712,0.021,1.099,0.052c0.469,0.034,0.987-0.124,1.307,0.156
	c0.144,0.038,0.106-0.104,0.21-0.104c0.475,0.182,1.371,0.312,1.778,0.104c0.175,0.217,0.507,0.004,0.732,0.21
	c0.191-0.112,0.323-0.196,0.523-0.054c0.174-0.149,0.236-0.12,0.471-0.156c-0.011,0.236,0.372,0.119,0.523,0.314
	c0.146-0.104,0.282-0.027,0.471-0.053c0.178-0.023,0.44-0.161,0.576-0.157c0.256,0.008,0.467,0.205,0.732,0.262
	c0.487,0.104,1.146,0,1.674,0.104c0.241,0.049,0.726,0.115,1.099,0.157c0.313,0.034,0.661-0.036,0.94,0
	c0.121,0.015,0.257,0.138,0.366,0.157c0.141,0.022,0.279-0.02,0.42,0c0.306,0.042,0.604,0.148,0.889,0.155
	c0.106,0.006,0.251-0.064,0.366-0.052c0.33,0.041,0.66,0.219,0.994,0.262c0.196,0.026,0.467,0.06,0.68,0.054
	c0.05-0.002,0.155-0.11,0.21-0.105c0.054,0.005,0.122,0.09,0.208,0.105c0.734,0.124,1.579,0.104,2.146,0.418
	c0.713-0.12,1.661,0.184,2.459,0.261C31.839,51.204,32.16,51.122,32.383,51.425z"/>
<path fill-rule="evenodd" clip-rule="evenodd" d="M36.934,53.728c0.032,0.41-0.659,0.61-1.098,0.628
	c-0.188,0.007-0.378-0.103-0.575-0.105c-0.438-0.006-0.857,0.146-1.204,0.21c-0.109-0.047-0.154-0.159-0.313-0.158
	c-0.503,0.083-0.926-0.045-1.36,0.054c-0.165-0.045-0.234-0.185-0.418-0.21c-0.797,0.233-1.056-0.371-1.727-0.156
	c-0.634-0.544-2.047-0.109-2.563-0.682c0.185-0.322,0.536-0.195,0.889-0.156c0.659,0.074,1.485,0.137,2.146,0.053
	c0.105,0.016,0.102,0.143,0.208,0.157c0.51-0.136,1.049,0.112,1.465,0.209c0.189,0.014,0.253-0.097,0.418-0.104
	c0.229,0.085,0.487,0.238,0.682,0c0.135,0.021,0.157,0.155,0.313,0.156C35.116,53.638,35.599,53.849,36.934,53.728z"/>
<path fill-rule="evenodd" clip-rule="evenodd" d="M47.396,1.203c0.205,0.073,0.397,0.12,0.786,0.052
	c0.208-0.036,1.028-0.248,1.255-0.052c0.097-0.007,0.032-0.177,0.105-0.209c0.216,0.042,0.306,0.083,0.47-0.053
	c0.494,0.148,0.869-0.161,1.257-0.209c0.283-0.036,0.59,0.162,0.784-0.104c0.178-0.022,0.31,0.037,0.471,0
	c0.223-0.051,0.415-0.277,0.628-0.314c0.162-0.028,0.398,0.079,0.575,0.052c0.071-0.01,0.194-0.101,0.261-0.105
	c0.28-0.016,0.565,0.105,0.838-0.156c0.117,0.287,0.311,0.273,0.522,0.523c0.255-0.04,0.459-0.268,0.681-0.053
	C56.187,0.437,56.188,0.143,56.343,0c0.27,0.132,0.444,0.358,0.524,0.68c0.195,0.056,0.083-0.196,0.262-0.157
	c0.047,0.372,0.601,0.236,0.836,0.418c-0.164,0.275-0.25,0.588-0.156,0.994c-0.153-0.014-0.161,0.119-0.313,0.105
	c-0.012,0.448-0.188,1.169-0.21,1.778c-0.143-0.004-0.104,0.087-0.21,0c-0.363,0.509-0.273,1.47-0.784,1.832
	c0.167,0.851-0.654,0.921-0.681,1.726c-0.306,0.077-0.412,0.355-0.47,0.68c-0.432,0.005-0.29,0.583-0.732,0.576
	c-0.168,0.495-0.042,1.283-0.628,1.359c0.006,0.705-0.255,1.141-0.522,1.569c0.123,0.529,0.003,0.931-0.472,0.995
	c-0.479,1.012-0.846,2.064-1.15,3.348c-0.341,0.062-0.511,0.292-0.629,0.576c-0.033,0.19,0.035,0.279,0.104,0.366
	c-0.164,0.516-0.424,0.935-0.574,1.464c-0.101,0.022-0.096,0.149-0.262,0.105c-0.071,0.261-0.195,0.469-0.419,0.575
	c0.082,0.876-0.589,1.52-0.733,2.145c-0.041,0.132-0.214,0.134-0.313,0.209c0,0.104,0,0.209,0,0.314
	c-0.079,0.078-0.158,0.157-0.262,0.209c0.016,0.603-0.2,0.938-0.523,1.308c0.018,0.436-0.273,0.564-0.314,0.942
	c-0.314-0.002-0.317,0.334-0.314,0.732c-0.127,0.082-0.135,0.282-0.313,0.314c0.107,0.194-0.075,0.137-0.052,0.366
	c-0.191-0.029-0.146,0.192-0.263,0.314c-0.197,0.206-0.488,0.385-0.523,0.837c-0.025,0.357,0.053,0.723-0.104,0.994
	c-0.116,0.215-0.368,0.295-0.523,0.471c0.022,0.544-0.34,0.705-0.522,1.046c0.117,0.334-0.155,0.523-0.314,0.732
	c0.029,0.578-0.661,0.627-0.47,1.203c-0.206,0.057-0.352,0.172-0.524,0.262c-0.014,0.177-0.083,0.3-0.052,0.522
	c-0.125,0.103-0.202,0.252-0.366,0.314c-0.154,0.683-0.501,1.173-0.732,1.778c-0.068,0.054-0.192,0.052-0.262,0.105
	c0.018,0.185,0.145,0.128,0.053,0.313c-0.1,0.022-0.132,0.112-0.263,0.104c-0.045,0.549-0.109,1.435-0.784,1.622
	c-0.156,0.488-0.526,0.763-0.522,1.412c-0.375,0.026-0.458,0.345-0.732,0.472c-0.027,0.269-0.091,0.503-0.313,0.575
	c0.288,0.523-0.304,0.713-0.21,1.203c-0.188,0.021-0.25,0.169-0.366,0.261c0.034,0.054,0.121,0.055,0.104,0.157
	c-0.308-0.013-0.223,0.371-0.575,0.314c-0.018,0.403-0.343,0.805-0.523,1.202c0.118,0.458-0.221,0.796-0.366,1.152
	c-0.188,0.002-0.253,0.13-0.418,0.156c-0.037,0.449-0.438,0.704-0.314,1.15c-0.364,0.439-0.666,0.938-0.837,1.57
	c-0.316,0.122-0.617,0.41-0.523,0.784c-0.399,0.104-0.337-0.255-0.68-0.208c-0.075,0.063-0.08,0.199-0.157,0.261
	c0.214,0.121,0.274,0.517,0.104,0.733c-0.244-0.181-0.35,0.226-0.523,0.261c0,0-0.204-0.098-0.313-0.104
	c-0.377-0.028-0.631,0.145-0.786-0.156c-1.661,0.595-3.083-0.262-5.073-0.262c-0.028-0.042-0.056-0.087-0.053-0.158
	c-0.608-0.084-1.223-0.217-1.779-0.313c-0.198-0.034-0.387,0.062-0.575,0.052c-0.229-0.011-0.468-0.143-0.68-0.156
	c-0.205-0.013-0.386,0.085-0.472-0.053c-0.264,0.043-0.491,0.043-0.627-0.157c-0.187-0.067-0.459,0.068-0.628,0.054
	c-0.186-0.018-0.766-0.234-1.046-0.314c-0.215-0.061-0.475-0.014-0.681-0.054c-0.247-0.045-0.633-0.049-0.994-0.104
	c-0.191-0.029-0.296-0.096-0.471-0.157c-0.173-0.06-0.448-0.195-0.785-0.157c-0.096,0.112-0.1-0.137-0.156-0.156
	c-0.14-0.047-0.499,0-0.732-0.052c-0.282-0.064-0.823-0.186-1.204,0c-0.16-0.441-0.729-0.276-1.15-0.368
	c-0.45-0.096-0.897-0.279-1.36-0.313c-0.213-0.015-0.436,0.071-0.628,0.052c-0.049-0.005-0.048-0.087-0.104-0.104
	c-0.073-0.022-0.16,0.052-0.156,0.052c-0.262-0.067-0.273-0.226-0.628-0.21c-0.164,0.024-0.139-0.141-0.262-0.156
	c-0.332-0.009-0.727,0.109-1.047,0.053c-0.075-0.014-0.137-0.132-0.209-0.158c-0.535-0.188-1.297-0.034-1.883-0.104
	c-0.208-0.024-0.396-0.178-0.576-0.21c-0.395-0.071-0.761-0.015-1.15-0.052c-0.169-0.017-0.31-0.122-0.471-0.105
	c-0.094,0.01-0.201,0.105-0.314,0.105c-0.638-0.007-1.215-0.315-1.83-0.053c-0.176-0.171-0.602-0.199-0.89-0.053
	c-0.28-0.111-0.484-0.176-0.837-0.104c-0.17-0.072,0.012-0.077-0.315-0.105c-0.346-0.03-0.818,0.157-1.15,0.523
	c0.162,0.412-0.276,0.635,0.054,0.889c-0.107,0.313-0.438,0.402-0.42,0.838c0.227-0.061,0.13-0.172,0.366-0.156
	c0.018,0.401-0.051,0.621-0.366,0.784c0.117,0.146,0.12,0.362,0.053,0.574c0.082,0.041,0.078,0.167,0.209,0.158
	C2.355,47.4,2.364,47.855,2.772,47.92c-0.045,0.48,0.212,0.66,0.628,0.681c-0.062,0.437,0.236,0.572,0.314,0.994
	c0.356,0.027,0.563,0.205,0.68,0.471c0.261,0.035,0.435,0.157,0.419,0.471c-0.408,0.119-0.98,0.296-1.57,0.209
	c-0.128,0.046-0.057,0.293-0.261,0.262c-0.248-0.282-0.188-0.652-0.681-0.68c-0.075-0.169-0.195-0.293-0.262-0.471
	c-0.179,0.021-0.292-0.021-0.418-0.052c-0.015-0.085,0.049-0.092,0.052-0.158c-0.406-0.08-0.634-0.506-0.628-0.836
	c-0.073-0.085-0.258-0.057-0.313-0.158c0.028-0.307,0.001-0.559-0.262-0.574c0.036-0.494-0.013-0.787-0.053-1.204
	c-0.241-0.128-0.146-0.269-0.262-0.522c-0.028-0.116,0.101-0.075,0.105-0.158C0.2,46.063,0.109,45.962,0,45.88
	c0.067-0.175,0.146-0.343,0.262-0.471c0.023-0.572,0.077-0.91,0.156-1.256c0.308-0.17,0.459-0.522,0.524-0.837
	c0.091-0.443-0.217-0.966,0-1.308c-0.291-0.169-0.144-0.586-0.263-0.994c0.556-0.381,0.534-1.437,1.047-1.988
	c-0.072-0.166,0.13-0.315,0-0.366c0.474-0.537,0.705-1.316,1.15-1.884c0-0.191,0-0.383,0-0.575c0.694-0.721,1.037-1.621,1.36-2.615
	c0.38-0.16,0.55-0.784,0.472-1.099c0.23-0.137,0.287-0.438,0.471-0.732c0.058-0.094,0.06-0.247,0.156-0.419
	c0.009-0.016,0.094,0.016,0.105,0c0.168-0.231,0.333-0.603,0.366-0.994c0.127-0.028,0.11-0.202,0.313-0.156
	c0.231-0.938,0.742-1.595,1.15-2.354c0-0.104,0-0.209,0-0.313c0.567-0.63,0.906-1.236,1.099-2.041
	c0.317-0.171,0.427-0.651,0.366-1.046c0.142,0.127,0.15-0.197,0.314-0.209c0.242-0.734,0.477-1.477,0.994-1.936
	c-0.015-0.275,0.197-0.425,0.104-0.627c0.169,0.045,0.073-0.173,0.21-0.157c-0.003-0.6,0.488-0.804,0.681-1.151
	c0.037-0.067,0.001-0.428,0.208-0.523c0.093-0.767,0.532-0.927,0.576-1.673c0.168,0.045,0.071-0.173,0.21-0.157
	c-0.007-0.259,0.051-0.257,0-0.471c0.192-0.068,0.248-0.274,0.313-0.471c0.329-0.102,0.283-0.449,0.366-0.732
	c0.117-0.399,0.382-0.73,0.471-1.098c0.255-0.251,0.383-0.63,0.575-0.942c-0.002-0.134,0.039-0.063,0.104-0.052
	c0.133-0.733,0.33-1.088,0.524-1.727c0.278-0.026,0.468-0.53,0.364-0.837c0.699-0.678,1.158-1.598,1.519-2.616
	c0.052,0,0.104,0,0.156,0c0.243-0.479,0.609-0.681,0.68-1.412c0.131-0.131,0.229-0.295,0.21-0.576
	c0.568-0.44,0.449-1.145,0.784-1.674c-0.132-0.698,0.508-0.718,0.628-1.308c0.194-0.073,0.503-0.329,0.471-0.785
	c0.158-0.035,0.204-0.181,0.21-0.366c0.098,0.007,0.174,0.035,0.21,0.105c0.026-0.233,0.325-0.206,0.418-0.524
	c0.16,0.058,0.423-0.201,0.522-0.209c0.101-0.008,0.368,0.164,0.523,0.157c0.09-0.004,0.133-0.017,0.209-0.104
	c0.289,0.003,0.599,0.066,0.838,0.052c0.138-0.008,0.231-0.121,0.366-0.105c0.122,0.015,0.307,0.067,0.47,0.053
	c0.259-0.024,0.555-0.262,0.838-0.053c0.118-0.179,0.153-0.203,0.156-0.418c0.106,0.018,0.164-0.011,0.156-0.104
	c0.238,0.102,0.569-0.127,0.472,0.052c0.165,0.06,0.128-0.082,0.209-0.104c0.185-0.009,0.166,0.184,0.262,0.261
	c0.097-0.079,0.123-0.226,0.21-0.313c0.113,0.108,0.551,0.113,0.68-0.053c0.179,0.231,0.354,0.043,0.575,0.053
	c0.049,0.001,0.241,0.02,0.21,0.156c0.12,0.016,0.058-0.151,0.157-0.156c0.24,0.056,0.292,0.299,0.522,0.366
	c0.278-0.337,1.031,0.254,1.099-0.314c0.465,0.15,0.789,0.145,1.308-0.105c0.116-0.029,0.075,0.1,0.157,0.105
	c0.191-0.018,0.211-0.208,0.472-0.157c0.141-0.036,0.1,0.108,0.156,0.157c0.275-0.174,0.764-0.3,0.994-0.105
	c0.118-0.071,0.22-0.134,0.418-0.157c0.136-0.015,0.396,0.097,0.418-0.052c0.172,0.067,0.318,0.217,0.42,0.209
	c0.142,0.038-0.038-0.247,0.104-0.209c0.334-0.003,0.384,0.28,0.681,0.314c0.098-0.008,0.032-0.178,0.104-0.209
	c0.401,0.012,0.505,0.011,0.784,0.157c0.336-0.144,1.107,0.134,1.412-0.21c0.294,0.094,0.439,0.015,0.733,0.262
	c0.199,0.077,0.011-0.234,0.209-0.157c0.107,0.068,0.132,0.216,0.262,0.261c0.405-0.033,0.605,0.05,0.784-0.209
	c0.217,0.161,0.268-0.005,0.472-0.104c0.206,0.174,0.632,0.071,0.941-0.053c0.078,0.079,0.094,0.221,0.209,0.262
	c0.04-0.083,0.166-0.078,0.157-0.209c0.913,0.082,1.593-0.124,2.354,0.262c0.158-0.138,0.608,0.016,0.628-0.262
	c0.292,0.266,0.901-0.139,1.202,0.262c0.07-0.034,0.098-0.112,0.105-0.209c0.682-0.035,1.15-0.25,1.675-0.052
	c0.129-0.149,0.409-0.149,0.574-0.262c0.126,0.225,0.669-0.042,0.838,0.157C47.216,1.401,47.473,1.248,47.396,1.203z M36.359,3.244
	c-0.224,0.237-0.883-0.076-1.15-0.053c0.03,0.003,0.062,0.008,0.052,0.053c-0.209,0.034-0.211-0.139-0.419-0.105
	c-0.262,0.116-0.866,0.195-1.047-0.052c-0.17,0.094-0.273-0.069-0.366,0.104c-0.273-0.121-0.408-0.076-0.732-0.104
	c-0.049,0.089-0.164,0.114-0.262,0.157c-0.335-0.241-0.897,0.218-1.307,0.052c-0.031,0.108-0.102,0.178-0.21,0.209
	c-0.47-0.035-0.911-0.099-1.308-0.209c-0.302,0.197-1.198-0.056-1.308,0.261c-0.346-0.127-0.396,0.004-0.733-0.052
	c-0.007,0.062,0.01,0.149-0.052,0.157c-0.425-0.085-0.697,0.096-0.994-0.157c-0.017,0.227-0.289,0.199-0.419,0.314
	c-0.099-0.058-0.183-0.13-0.313-0.157C25.296,3.82,24.636,3.498,24.17,3.61c0.123,0-0.019,0.143-0.105,0.104
	c-0.231,0.057-0.26-0.088-0.418-0.104c-0.122,0.087-0.607,0.31-0.732,0.052c-0.708,0.263-1.195,0.131-1.937-0.052
	c0,0.227,0,0.453,0,0.68c-0.179,0.09-0.186,0.197-0.208,0.523c-0.287,0.219-0.317,0.695-0.681,0.837
	c-0.123,0.752-0.215,1.128-0.418,1.726c0.149,0.419,0.01,0.738-0.052,0.994c-0.289-0.005-0.445,0.505-0.786,0.732
	c0.078,0.145,0.02,0.32-0.052,0.524c-0.061-0.044-0.141-0.069-0.262-0.053c-0.039,0.149-0.19,0.358-0.104,0.471
	c-0.53,0.36-0.938,0.841-0.994,1.674c-0.701,0.266-0.441,1.216-0.732,1.831c-0.193-0.099-0.239,0.336-0.418,0.419
	c0.026,0.671-0.452,0.838-0.366,1.568c-0.36,0.338-0.6,0.797-0.732,1.36c-0.178-0.02-0.083,0.232-0.314,0.157
	c-0.132,0.462-0.007,0.812-0.366,1.046c0.085,0.172-0.012,0.201,0,0.419c-0.155-0.058-0.206,0.071-0.366,0.209
	c0.012,0.256,0.034,0.199,0.104,0.418c-0.126,0.366-0.211,0.789-0.313,0.942c-0.129,0.193-0.228,0.439-0.262,0.523
	c-0.067,0.169-0.106,0.139-0.157,0.261c-0.028,0.071,0.059,0.065,0,0.157c-0.093,0.144-0.352,0.173-0.523,0.157
	c-0.209,0.401-0.411,0.809-0.574,1.255c0,0.14-0.021,0.299,0.052,0.366c-0.273,0.18-0.505,0.403-0.523,0.837
	c-0.316,0.154-0.413,0.529-0.522,0.889c-0.149,0.043-0.267,0.118-0.314,0.262c0,0.157,0,0.314,0,0.471
	c-0.264,0.555-0.39,1.249-0.838,1.622c0,0.087,0,0.174,0,0.261c-0.51,0.168-0.421,0.722-0.732,1.151
	c0.116,0.007,0.022,0.223,0.054,0.314c-0.426,0.242-0.721,0.696-0.681,1.256c-0.099-0.012-0.115,0.059-0.209,0.052
	c-0.367,0.801-0.774,1.563-1.36,2.145c0.018,0.949-0.329,1.21-0.471,1.988c-0.142,0.015-0.286,0.066-0.314,0.314
	c-0.038,0.16,0.181,0.063,0.104,0.261c-0.436,0.715-0.842,1.46-1.464,1.988c0,0.104,0,0.21,0,0.313
	c-0.344,0.163-0.211,0.802-0.681,0.837c-0.056,0.538-0.328,0.858-0.68,1.1c-0.103,0.752-0.475,1.233-0.837,1.727
	c0,0.087,0,0.174,0,0.262c-0.237,0.198-0.332,0.54-0.418,0.888c-0.164,0.099-0.34,0.187-0.367,0.419
	c0.122,0.124,0.257-0.008,0.419,0c0.213,0.199,0.53,0.032,0.837,0.052c0.06,0.006,0.158,0.098,0.208,0.105
	c0.243,0.038,0.586,0.014,0.838,0c0.421-0.021,0.836,0.004,1.15-0.105c0.502,0.213,1.205,0.032,1.884,0.105
	c0.062,0.006,0.157,0.098,0.209,0.104c0.796,0.112,1.511,0.107,2.093-0.052c0.309,0.331,1.261,0.188,1.778,0.365
	c0.232-0.197,0.391,0.089,0.733-0.052c0.937,0.184,1.982,0.352,2.981,0.313c0.65,0.293,1.749,0.195,2.25,0.053
	c0.259,0.371,0.776,0.352,1.255,0.314c0.132,0.227,0.613,0.289,0.89,0.21c0.531,0.227,1.278,0.396,1.621,0.47
	c0.323,0.067,0.658,0.105,0.891,0.156c0.24,0.055,0.519,0.032,0.784,0c0.134,0.129,0.356,0.167,0.523,0.262
	c0.077-0.027,0.132-0.076,0.21-0.104c1.012,0.399,2.393,0.432,3.399,0.836c0.485-0.131,1.105,0.088,1.57,0.158
	c0.096,0.015,0.254-0.191,0.262,0.052c0.206-0.073,0.354-0.204,0.574-0.262c0.146,0.081,0.112,0.342,0.419,0.262
	c-0.038,0.16,0.091,0.154,0.053,0.313c0.541-0.109,1.335,0.157,1.987-0.104c0.155,0.088,0.305,0.184,0.523,0.209
	c0.492-0.459,1.136-0.11,1.778-0.053c0.092,0.109,0.118,0.154,0.053,0.314c0.319-0.066,0.608,0.398,0.732,0.052
	c0.037-0.041-0.254-0.197-0.262-0.366c0.469-1.313,1.425-2.537,2.04-3.871c-0.22-0.264,0.075-0.38-0.052-0.732
	c0.506-0.349,0.487-1.222,0.994-1.569c0.037-0.16-0.055-0.19-0.053-0.314c0.296-0.286,0.601-0.763,0.522-1.255
	c0.326-0.251,0.623-0.529,0.576-1.151c0.409-0.358,0.646-0.889,0.942-1.36c0.067-0.162-0.015-0.149,0-0.366
	c0.269,0.014,0.319-0.408,0.156-0.523c0.184,0.01,0.172-0.176,0.313-0.209c0.093-0.412,0.488-0.746,0.366-1.203
	c0.413-0.268,0.528-0.805,0.732-1.151c-0.062-0.008-0.147,0.009-0.156-0.052c0.1-0.161,0.25-0.272,0.366-0.419
	c-0.076-0.443,0.489-0.695,0.574-1.15c0.132-0.078,0.289-0.131,0.366-0.262c-0.115-0.022-0.021-0.258-0.052-0.366
	c0.14,0,0.114-0.166,0.262-0.157c-0.06-0.402,0.45-0.477,0.262-0.837c0.271-0.252,0.558-0.489,0.522-1.046
	c0.187-0.215,0.35-0.579,0.262-0.784c0.25-0.197,0.117-0.456,0.366-0.628c-0.03-0.347,0.112-0.352,0.104-0.575
	c0.588-0.43,0.52-1.248,1.048-1.778c-0.049-0.519,0.143-0.799,0.261-1.151c0.308,0.112,0.455-0.501,0.366-0.785
	c0.236,0.016,0.151-0.255,0.262-0.418c0.052-0.078,0.214-0.119,0.262-0.21c0.032-0.06-0.033-0.116,0-0.209
	c0.023-0.066,0.143-0.115,0.156-0.157c0.099-0.3,0.093-0.579,0.054-0.784c0.307-0.307,0.715-0.779,0.627-1.308
	c0.148-0.026,0.075-0.273,0.313-0.209c0.17-0.265,0.221-0.65,0.523-0.784c0.117-0.633,0.696-0.804,0.575-1.674
	c0.272-0.357,0.547-0.924,0.523-1.413c0.48-0.426,0.667-0.986,0.784-1.674c0.342-0.061,0.374-0.429,0.419-0.785
	c0.354-0.07,0.422-0.536,0.523-0.837c0.081-0.243,0.278-0.46,0.366-0.628c0.193-0.373,0.231-0.785,0.366-1.098
	c0.006-0.016,0.137-0.07,0.156-0.105c0.134-0.231,0.167-0.489,0.21-0.732c0.245-0.155,0.39-0.412,0.418-0.784
	c0.324-0.318,0.628-0.828,0.681-1.256c0.21-0.165,0.394-0.547,0.366-0.785c0.074,0.021,0.088,0.063,0.157,0
	c0.058-0.27,0.249-0.455,0.156-0.732c0.277-0.281,0.287-0.83,0.628-1.046c0.161-0.914,0.624-1.248,0.784-2.197
	c-0.497-0.016-0.985-0.04-1.308,0.157c0.011-0.115-0.043-0.167-0.156-0.157c-0.322,0.08-0.632,0.171-0.89,0.314
	c-0.228-0.143-0.322,0.04-0.471,0.052c-0.116,0.01-0.184-0.073-0.262-0.052c-0.152,0.04-0.219,0.224-0.366,0.261
	c0.035-0.009-0.209-0.104-0.209-0.104c-0.192,0.003-0.253,0.208-0.419,0.104c-0.303-0.218-1.03,0.114-1.308-0.052
	c-0.232,0.145-0.33,0.115-0.575,0.262c-0.039-0.119-0.199-0.115-0.21-0.262c-0.457-0.091-1.004,0.358-1.621,0.052
	c-0.099,0.058-0.184,0.131-0.314,0.157c-0.164,0.025-0.118-0.161-0.313-0.104c-0.033,0.159-0.24,0.144-0.314,0.261
	c-0.233-0.271-0.59-0.083-0.836,0.052C45.451,3.143,45.42,3.175,45.2,3.087c-0.411,0.199-0.784-0.067-1.099,0
	c0.041,0.012,0.104,0.001,0.104,0.052c-0.303-0.118-0.535,0.026-0.732,0.157c-0.239-0.004-0.335-0.153-0.575-0.157
	c-0.103,0.125-0.163,0.29-0.313,0.366c-0.147-0.196-0.282,0.007-0.472,0.052c-0.012-0.196-0.27-0.148-0.313-0.313
	c-0.295,0.099-0.415,0.203-0.733,0.104c-0.1,0.093-0.09,0.294-0.261,0.314c-0.141,0-0.115-0.165-0.263-0.157
	c-0.457,0.111-1.187-0.261-1.518,0.157c-0.09-0.133-0.371-0.144-0.627-0.157c-0.36-0.019-0.777,0.019-1.046,0.105
	C37.138,3.261,36.577,3.58,36.359,3.244z"/>
<path fill-rule="evenodd" clip-rule="evenodd" d="M41.591,51.112c0.143-0.146-0.306-0.144-0.21-0.419
	c0.027-0.109,0.736-0.36,0.42-0.627c0.563-0.866,0.729-1.813,1.307-2.668c0.022-0.257,0.055-0.2,0-0.42
	c0.363-0.3,0.38-0.944,0.838-1.149c0.019-0.905,0.633-1.216,0.732-2.041c0.127-0.028,0.111-0.202,0.313-0.156
	c-0.106-0.323,0.468-0.721,0.261-0.994c0.238-0.079,0.238-0.269,0.42-0.576c0.077-0.135,0.229-0.286,0.261-0.366
	c0.06-0.149-0.011-0.353,0.052-0.522c0.061-0.163,0.372-0.385,0.367-0.682c0.025-0.163-0.074-0.203-0.105-0.313
	c0.066-0.192,0.357-0.294,0.21-0.42c0.034-0.068,0.112-0.096,0.21-0.104c-0.069-0.188,0.002-0.192-0.054-0.366
	c0.289-0.217,0.209-0.803,0.523-0.994c-0.084-0.752,0.677-1.139,0.575-1.936c0.135-0.004,0.056-0.224,0.262-0.157
	c-0.146-0.892,0.589-1.087,0.732-1.83c0.168,0.045,0.108-0.136,0.21-0.157c-0.213-0.542,0.585-0.708,0.418-1.203
	c0.204-0.095,0.279-0.078,0.21-0.366c0.109-0.03,0.149-0.13,0.313-0.105c-0.128-0.449,0.376-0.511,0.366-0.994
	c0.311-0.073,0.278-0.488,0.522-0.627c-0.1-0.257,0.127-0.499,0.314-0.628c0.05-0.404,0.174-0.732,0.313-1.046
	c-0.164-0.186,0.104-0.378,0-0.471c0.042-0.151,0.254-0.131,0.366-0.209c-0.05-0.219-0.109-0.311-0.052-0.524
	c0.463-0.792,0.56-1.951,1.15-2.616c0-0.122,0-0.244,0-0.366c0.153-0.039,0.261-0.124,0.366-0.209
	c-0.011-0.326,0.093-0.537,0.314-0.627c0.003-0.468,0.331-0.773,0.262-1.151c0.253-0.213,0.315-0.335,0.366-0.785
	c0.142-0.033,0.15-0.357,0.313-0.209c0.063-0.443,0.227-0.784,0.419-1.098c0.038-0.537,0.148-1.002,0.523-1.203
	c0.004-0.258,0.024-0.498,0.261-0.523c0.007-0.094-0.063-0.11-0.053-0.209c0.304-0.246,0.609-0.681,0.524-1.151
	c0.146-0.115,0.415-0.383,0.262-0.628c0.146-0.046,0.123-0.259,0.313-0.261c0-0.087,0-0.174,0-0.262
	c0.39-0.256,0.563-0.728,0.681-1.255c0.412-0.233,0.544-0.747,0.628-1.308c0.094-0.161,0.346-0.457,0.418-0.68
	c0.025-0.077-0.03-0.188,0-0.262c0.037-0.087,0.167-0.116,0.21-0.209c0.145-0.312,0.266-1.16,0.052-1.36c-0.14,0-0.278,0-0.418,0
	c0.002-0.089-0.039-0.136-0.104-0.157c-0.039-0.369,0.129-0.533,0.156-0.837c-0.113-0.155-0.12-0.35-0.208-0.523
	C58.045,10,57.862,9.874,57.809,9.73c-0.065-0.173-0.013-0.479-0.105-0.68c-0.071-0.156-0.178-0.238-0.313-0.366
	c0.005-0.162-0.063-0.25-0.104-0.366c-0.156,0-0.314,0-0.471,0c0.197-0.358-0.356-0.671-0.157-1.151
	c-0.368-0.234,0.033-1.297,0.052-1.622c0.496-0.118,0.624,0.2,0.942,0.314c-0.124,0.644-0.244,1.291,0.104,1.779
	c0.564-0.024,0.603,0.479,0.941,0.68c-0.031,0.709,0.027,1.227,0.262,1.779c-0.076,0.445-0.688,1.213-0.105,1.518
	c0.408-0.167,0.432-0.72,0.838-0.89c0.197,0.04,0.25-0.064,0.419-0.053c0.219,0.011,0.162-0.256,0.418-0.209
	c0.054,0.383,0.412,0.298,0.313,0.733c0.045,0.112,0.13,0.185,0.314,0.156c-0.137,0.381,0.089,0.816-0.156,1.046
	c-0.015,0.189,0.096,0.252,0.104,0.419c-0.089,0.103-0.161,0.223-0.314,0.261c0.06,0.417-0.043,0.697-0.156,0.785
	c-0.225,0.173-0.244,0.65-0.42,0.941c-0.108,0.183-0.344,0.22-0.261,0.628c-0.336,0.135-0.281,0.66-0.418,0.994
	c-0.351,0.138-0.305,0.672-0.523,0.941c0.154,0.348-0.143,0.553,0,0.889c-0.206,0.195-0.245,0.558-0.471,0.732
	c-0.017,0.206,0.12,0.358-0.105,0.419c0.115,0.232,0.233,0.378,0.157,0.68c-0.686,0.324-1.079,0.71-1.203,1.517
	c-0.358-0.062-0.331,0.262-0.522,0.367c0.198,0.518-0.185,0.845-0.263,1.255c-0.188-0.031-0.253,0.061-0.366,0.104
	c-0.036,0.211,0.051,0.299,0.053,0.471c-0.191,0.26-0.162,0.598-0.366,0.889c-0.044,0.063-0.196,0.109-0.21,0.157
	c-0.041,0.149,0.082,0.353,0.054,0.523c-0.08,0.466-0.304,0.604-0.576,0.89c-0.024,0.026,0.027,0.133,0,0.157
	c-0.245,0.216-0.027,0.696-0.313,0.994c-0.387,0.116-0.355,0.157-0.471,0.627c-0.033,0.135-0.144,0.178-0.157,0.262
	c-0.017,0.097,0.069,0.164,0.052,0.209c-0.088,0.234-0.302,0.309-0.471,0.523c-0.027,0.035-0.009,0.197-0.052,0.262
	c-0.08,0.118-0.184,0.083-0.21,0.157c-0.031,0.091,0.054,0.198,0.052,0.209c-0.011,0.101-0.18,0.241-0.052,0.471
	c-0.559,0.536-0.95,1.352-1.36,1.884c0.098,0.481-0.141,0.854-0.522,1.099c-0.018,0.123-0.083,0.196-0.052,0.366
	c-0.188,0.088-0.566,0.412-0.263,0.522c-0.069,0.088-0.232,0.082-0.313,0.157c-0.086,0.157-0.062,0.427-0.262,0.471
	c-0.028,0.688-0.608,0.821-0.785,1.36c0.044,0.392,0.006,0.581-0.208,0.732c-0.016,0.119,0.012,0.197,0.104,0.209
	c-0.126,0.141-0.155,0.052-0.366,0.105c0.049,0.467-0.104,0.467-0.158,0.994c-0.127,0.028-0.111,0.202-0.313,0.156
	c-0.174,0.728-0.472,1.251-0.784,1.937c0.15,0.217,0.002,0.225,0,0.522c-0.22,0.008-0.286,0.168-0.262,0.418
	c-0.099,0.216-0.257,0.371-0.366,0.576c0.138,0.244-0.007,0.476-0.263,0.574c0,0.141,0,0.279,0,0.42
	c-0.076,0.027-0.132,0.076-0.208,0.104c0.016,0.527-0.488,0.975-0.732,1.413c0,0.14,0,0.279,0,0.42
	c-0.323,0.146-0.481,0.46-0.472,0.94c-0.639,0.201-0.439,1.45-1.203,1.36c-0.068,0.296,0.208,0.247,0.21,0.472
	c-0.438,0.52-0.504,1.413-1.046,1.83c-0.056,0.572-0.359,0.896-0.628,1.255c0.009,0.497-0.212,0.765-0.314,1.152
	c-0.046,0.04-0.118,0.056-0.21,0.052c-0.173,0.612-0.427,0.98-0.522,1.569c-0.279,0.087-0.383,0.35-0.523,0.575
	c-0.024,0.165,0.16,0.118,0.105,0.314c-0.145,0.17-0.431,0.197-0.523,0.418c-0.038,0.16,0.09,0.154,0.052,0.314
	c-0.319,0.416-1.22,1.404-1.517,0.47c-0.097-0.213,0.254-0.611,0.21-0.784c-0.009-0.148,0.147-0.131,0.208-0.21
	c-0.153-0.341,0.194-0.563,0.262-0.784c0.032-0.101-0.069-0.203,0-0.313c0.024-0.039,0.07-0.038,0.104-0.104
	c0.071-0.136,0.329-0.159,0.471-0.314c0.167-0.18,0.189-0.412,0.21-0.68c0.149-0.147,0.252-0.342,0.366-0.522
	C41.506,51.556,41.452,51.012,41.591,51.112z M54.616,26.262c0.064,0.011,0.033,0.058,0,0.104c0.036,0,0.07,0,0.105,0
	c0.031-0.002,0.063-0.007,0.053-0.053c-0.134-0.035,0.188-0.173-0.053-0.209C54.737,26.208,54.651,26.209,54.616,26.262z
	 M52.21,29.506C51.875,29.446,52.096,29.666,52.21,29.506L52.21,29.506z M52.264,30.761C51.928,30.701,52.147,30.921,52.264,30.761
	L52.264,30.761z"/>
<path fill-rule="evenodd" clip-rule="evenodd" d="M35.573,55.559c0.453,0.023,0.924,0.327,1.57,0.313
	c0.356-0.008,0.596-0.071,0.837,0.156c0.046,0.045,0.013,0.158,0.053,0.21c0.06,0.078,0.139,0.034,0.209,0.104
	c0.132,0.131,0.105,0.393,0.262,0.472c-0.137,0.246-0.249,0.517-0.418,0.732c-0.51-0.027-0.913-0.201-1.256,0.104
	c-0.202-0.159-0.507-0.093-0.732,0c-0.328-0.419-1.097-0.037-1.256-0.47c-0.369,0.082-0.617-0.188-0.89-0.21
	c-0.239-0.02-0.44,0.186-0.68,0.105c-0.146-0.051-0.247-0.315-0.576-0.158c-0.155-0.192-0.375-0.322-0.784-0.262
	c0.077-0.198-0.233-0.01-0.156-0.208c-1.077-0.181-2.572-0.684-3.977-0.366c-0.191-0.069-0.619-0.286-0.784-0.054
	c-0.448-0.159-0.857,0.102-1.309,0.105c0.034-0.191-0.034-0.279-0.104-0.366c-0.619-0.082-1.095,0.125-1.569,0.209
	c-0.241-0.436-1.254-0.201-1.569,0c0.048-0.206-0.182-0.132-0.105-0.366c-0.361,0.22-1.099-0.389-1.568-0.156
	c-0.184-0.112-0.375-0.196-0.419-0.314c-0.093-0.015-0.107,0.049-0.052,0.053c-0.069,0.099-0.172-0.121-0.315,0
	c-0.302-0.465-1.373-0.16-1.621-0.681c-0.201-0.058-0.459,0.094-0.523,0c-0.207-0.138-0.222-0.367-0.522-0.471
	c-0.311-0.106-0.794,0.063-0.994-0.262c-0.295,0.082-0.426,0.02-0.784,0.053c-0.06-0.081-0.17-0.109-0.157-0.262
	c-0.315-0.081-0.606,0.121-0.681-0.157c-0.507,0.145-0.864-0.103-1.255,0.157c-0.157-0.001-0.178-0.137-0.314-0.157
	c-0.112,0.08-0.294,0.09-0.366,0.209c-0.778-0.213-1.258-0.122-1.987-0.104c-0.044-0.061-0.07-0.14-0.053-0.262
	c-0.449,0.004-0.468-0.237-0.838-0.104c-0.229-0.198-0.308-0.101-0.732-0.262c-0.286-0.108-0.907-0.381-1.255-0.052
	c-0.19-0.125-0.425-0.206-0.575,0c-0.071-0.017-0.043-0.131-0.053-0.209c-0.125,0.031-0.245,0.016-0.47,0.052
	c-0.425-0.218-1.283-0.027-1.309-0.523c-0.177,0.004-0.374,0.121-0.472-0.104c-0.294,0.188-0.611,0.049-0.836-0.104
	c-0.161-0.61,0.402-1.046,0.941-0.786c0.183,0.009,0.335-0.014,0.418-0.104c0.149,0.149,0.729,0.182,0.837,0.053
	c0.427,0.073,1.363,0.238,1.78-0.053c0.194,0.032,0.33,0.123,0.47,0.21c0.565-0.452,1.267,0.221,1.937,0
	c0.167-0.046,0.071,0.172,0.209,0.156c0.188-0.004,0.303-0.081,0.47-0.104c-0.002,0.089,0.04,0.135,0.105,0.156
	c0.854-0.213,1.478,0.033,2.302-0.104c0.089,0.051,0.115,0.164,0.157,0.262c0.345-0.047,0.858-0.013,1.099-0.052
	c0.169-0.047,0.073,0.17,0.156,0.208c0.384-0.062,0.502,0.192,0.994,0.158c0.027,0.042,0.055,0.084,0.052,0.156
	c0.395,0.032,0.567-0.038,0.786,0.157c0.164-0.133,0.431-0.162,0.732-0.157c0.046,0.184-0.011,0.172,0.104,0.313
	c0.259,0.042,0.39,0.069,0.576-0.052c0.183,0.314,0.537,0.236,0.837,0.104c0.181-0.006,0.077,0.272,0.209,0.313
	c0.405-0.28,0.751,0.424,1.257,0.21c0.132,0.239,0.452,0.082,0.679,0.104c0.421,0.041,0.863,0.168,1.204,0.366
	c0.053-0.034,0.053-0.121,0.156-0.104c0.561,0.211,1.056,0.231,1.622,0.366c0.188-0.003,0.253-0.131,0.418-0.157
	c0.098,0.199,0.393,0.201,0.576,0.313c0.122-0.017,0.216-0.063,0.313-0.104c0.432,0.304,1.038,0.184,1.465,0.419
	c0.606-0.297,1.165,0.321,1.831,0.104c0.643,0.31,1.551,0.143,2.196,0.576c0.443-0.01,0.827,0.137,1.1-0.104
	c0.226-0.051,0.152,0.197,0.314,0.209c0.201-0.007,0.458,0.041,0.522-0.104c0.123,0.226,0.376,0.322,0.523,0.523
	c0.349-0.241,0.809-0.228,1.099,0.053c0.342-0.095,0.535-0.177,0.94-0.104C35.502,55.468,35.709,55.545,35.573,55.559z"/>
</svg>
