<?xml version="1.0" encoding="utf-8"?>
<!-- Generator: Adobe Illustrator 14.0.0, SVG Export Plug-In  -->
<!DOCTYPE svg PUBLIC "-//W3C//DTD SVG 1.1//EN" "http://www.w3.org/Graphics/SVG/1.1/DTD/svg11.dtd" [
	<!ENTITY ns_flows "http://ns.adobe.com/Flows/1.0/">
]>
<svg version="1.1"
	 xmlns="http://www.w3.org/2000/svg" xmlns:xlink="http://www.w3.org/1999/xlink" xmlns:a="http://ns.adobe.com/AdobeSVGViewerExtensions/3.0/"
	 x="0px" y="0px" width="64px" height="64px" viewBox="2.127 -1.43 64 64" enable-background="new 2.127 -1.43 64 64"
	 xml:space="preserve">
<defs>
</defs>
<path fill-rule="evenodd" clip-rule="evenodd" fill="#FFFFFF" d="M29.942,42.169l-8.264,4.094l-3.412,5.99l-2.578,0.909
	l-2.123,2.578l-4.094,3.108l-5.763-1.44c0,0,1.169,2.661,9.919,3.911s15.25-0.75,19.75-0.75s7.5-0.5,13.75,0.75
	S60.423,63.55,63,60.972s-5.535-1.289-8.492-2.957s-6.381-8.445-7.381-8.945s-3.537-4.171-8.921-5.688S29.942,42.169,29.942,42.169z
	"/>
<path fill-rule="evenodd" clip-rule="evenodd" fill="#E9C248" d="M29.603,38.167l-7.961,3.945l-3.287,5.771l-2.484,0.875
	l-2.045,2.484l-3.944,2.995l-5.552-1.389c0,0,1.126,2.564,9.556,3.769c8.431,1.204,14.693-0.723,19.028-0.723
	s7.226-0.481,13.248,0.723s12.81,2.148,15.292-0.335c2.483-2.484-5.332-1.242-8.182-2.85c-2.849-1.606-6.146-8.136-7.11-8.617
	s-3.408-4.019-8.595-5.479C32.378,37.875,29.603,38.167,29.603,38.167z"/>
<path fill-rule="evenodd" clip-rule="evenodd" fill="#FFFFFF" d="M11.958,1.46l5.154-0.987l4.24,4.118l4.672,8.374l3.035,5.597
	l3.373,4.094l0.963-2.167c0,0,0.476-1.493,1.322-2.191c0.845-0.699,3.254-5.998,3.254-5.998l3.247-5.252l4.701-1.251l8.959-1.012
	l-2.776,2.921l-1.605,4.112l-1.17,3.704l-1.023,2.776l-7.815,2.849l-6.371,1.51l-3.052,1.923c0,0,2.774-2.702-3.142-5.186
	c-5.916-2.484-9.422-2.849-9.422-2.849l-1.536-3.068L12.583,5.44L11.958,1.46z"/>
<path fill-rule="evenodd" clip-rule="evenodd" fill="#FFFFFF" d="M19.304,1.496C19.639,1.545,19.245,1.938,19.304,1.496
	L19.304,1.496z"/>
<path fill-rule="evenodd" clip-rule="evenodd" fill="#FFFFFF" d="M11.561,3.03c0.048,0,0.097,0,0.145,0
	c0.021,0.119-0.069,0.126-0.073,0.22c-0.049,0-0.096,0-0.146,0C11.467,3.132,11.557,3.124,11.561,3.03z"/>
<path fill-rule="evenodd" clip-rule="evenodd" fill="#FFFFFF" d="M12.875,4.198c0.025-0.088,0.195-0.058,0.219,0
	C13.161,4.356,12.828,4.368,12.875,4.198z"/>
<path fill-rule="evenodd" clip-rule="evenodd" fill="#FFFFFF" d="M20.473,4.198c0.013,0.21,0.008,0.399-0.221,0.365
	c0.027-0.124-0.056-0.137-0.146-0.145C20.217,4.333,20.286,4.208,20.473,4.198z"/>
<path fill-rule="evenodd" clip-rule="evenodd" fill="#FFFFFF" d="M19.523,4.345c0.213,0.049,0.539,0.228,0.365,0.438
	C19.797,4.607,19.52,4.616,19.523,4.345z"/>
<path fill-rule="evenodd" clip-rule="evenodd" fill="#FFFFFF" d="M48.012,4.637c0.049,0,0.097,0,0.146,0c0,0.049,0,0.098,0,0.146
	c-0.05,0-0.098,0-0.146,0C48.012,4.735,48.012,4.686,48.012,4.637z"/>
<path fill-rule="evenodd" clip-rule="evenodd" fill="#FFFFFF" d="M13.241,4.71c0.048,0,0.097,0,0.146,0c0,0.049,0,0.097,0,0.146
	c-0.048,0-0.098,0-0.146,0C13.241,4.807,13.241,4.759,13.241,4.71z"/>
<path fill-rule="evenodd" clip-rule="evenodd" fill="#FFFFFF" d="M54.878,4.784c0.022-0.1,0.184-0.06,0.293-0.073
	c-0.027,0.124,0.057,0.137,0.146,0.146c0.021,0.193-0.152,0.189-0.293,0.219c0.015-0.058,0.074-0.072,0.074-0.146
	C55.044,4.862,54.965,4.82,54.878,4.784z"/>
<path fill-rule="evenodd" clip-rule="evenodd" fill="#FFFFFF" d="M22.08,4.93c0.048,0,0.097,0,0.146,0c0,0.048,0,0.097,0,0.146
	c-0.049,0-0.098,0-0.146,0C22.08,5.027,22.08,4.978,22.08,4.93z"/>
<path fill-rule="evenodd" clip-rule="evenodd" fill="#FFFFFF" d="M12.802,5.587c-0.029-0.247-0.283,0.193-0.219-0.147
	c0.098,0,0.194,0,0.292,0c-0.011,0.182,0.038,0.303,0.146,0.365c-0.063,0.109-0.185,0.158-0.365,0.146
	C12.54,5.843,12.549,5.537,12.802,5.587z"/>
<path fill-rule="evenodd" clip-rule="evenodd" fill="#FFFFFF" d="M23.175,5.806c0.156-0.034,0.139,0.105,0.146,0.219
	c-0.06-0.013-0.073-0.072-0.146-0.072C23.175,5.903,23.175,5.854,23.175,5.806z"/>
<path fill-rule="evenodd" clip-rule="evenodd" fill="#FFFFFF" d="M52.249,6.391c0.05,0,0.099,0,0.146,0c0,0.049,0,0.097,0,0.146
	c-0.048,0-0.097,0-0.146,0C52.249,6.488,52.249,6.44,52.249,6.391z"/>
<path fill-rule="evenodd" clip-rule="evenodd" fill="#FFFFFF" d="M14.41,6.61c0.048,0,0.096,0,0.145,0
	c0.035,0.155-0.104,0.139-0.219,0.146C14.351,6.695,14.41,6.683,14.41,6.61z"/>
<path fill-rule="evenodd" clip-rule="evenodd" fill="#FFFFFF" d="M41,6.974c0.118-0.02,0.126,0.069,0.219,0.073
	C41.248,7.189,40.886,7.155,41,6.974z"/>
<path fill-rule="evenodd" clip-rule="evenodd" fill="#FFFFFF" d="M40.341,7.559c0.257,0.021-0.183,0.272,0.073,0.292
	c0.014,0.062-0.028,0.069-0.073,0.073c-0.05,0-0.098,0-0.146,0C40.184,7.743,40.31,7.699,40.341,7.559z"/>
<path fill-rule="evenodd" clip-rule="evenodd" fill="#FFFFFF" d="M51.883,7.705c0.073,0,0.146,0,0.219,0c0,0.049,0,0.098,0,0.146
	c-0.072,0-0.146,0-0.219,0C51.883,7.803,51.883,7.754,51.883,7.705z"/>
<path fill-rule="evenodd" clip-rule="evenodd" fill="#FFFFFF" d="M22.445,8.144c0.089,0.032,0.149,0.093,0.146,0.219
	C22.5,8.331,22.441,8.27,22.445,8.144z"/>
<path fill-rule="evenodd" clip-rule="evenodd" fill="#FFFFFF" d="M15.432,8.51c0.071,0.002,0.056,0.088,0.073,0.145
	c0.096-0.086,0.115-0.028,0.219,0c-0.048,0.099-0.156,0.136-0.292,0.147C15.347,8.694,15.347,8.617,15.432,8.51z"/>
<path fill-rule="evenodd" clip-rule="evenodd" fill="#FFFFFF" d="M47.865,9.604c0.05,0,0.099,0,0.147,0
	c0.021,0.119-0.07,0.126-0.073,0.22c-0.049,0-0.097,0-0.146,0C47.772,9.707,47.861,9.699,47.865,9.604z"/>
<path fill-rule="evenodd" clip-rule="evenodd" fill="#FFFFFF" d="M23.249,10.335c0.117-0.021,0.125,0.07,0.218,0.073
	C23.497,10.549,23.135,10.516,23.249,10.335z"/>
<path fill-rule="evenodd" clip-rule="evenodd" fill="#FFFFFF" d="M37.932,10.993c0.048,0,0.097,0,0.145,0c0,0.048,0,0.097,0,0.146
	c-0.048,0-0.097,0-0.145,0C37.932,11.089,37.932,11.041,37.932,10.993z"/>
<path fill-rule="evenodd" clip-rule="evenodd" fill="#FFFFFF" d="M43.336,12.6c0.049,0,0.098,0,0.146,0c0,0.049,0,0.096,0,0.146
	c-0.048,0-0.097,0-0.146,0C43.336,12.696,43.336,12.649,43.336,12.6z"/>
<path fill-rule="evenodd" clip-rule="evenodd" fill="#FFFFFF" d="M26.024,12.965c-0.028-0.143,0.333-0.107,0.22,0.072
	c-0.049,0-0.098,0-0.146,0C26.11,12.976,26.068,12.969,26.024,12.965z"/>
<path fill-rule="evenodd" clip-rule="evenodd" fill="#FFFFFF" d="M17.186,13.33c-0.032,0.091-0.094,0.15-0.221,0.146
	C16.932,13.32,17.071,13.337,17.186,13.33z"/>
<path fill-rule="evenodd" clip-rule="evenodd" fill="#FFFFFF" d="M37.639,14.207c0.191-0.02,0.366-0.024,0.293,0.219
	C37.74,14.446,37.618,14.399,37.639,14.207z"/>
<path fill-rule="evenodd" clip-rule="evenodd" fill="#FFFFFF" d="M49.619,15.156c-0.028-0.141,0.333-0.105,0.22,0.074
	c-0.05,0-0.098,0-0.146,0C49.706,15.167,49.663,15.161,49.619,15.156z"/>
<path fill-rule="evenodd" clip-rule="evenodd" fill="#FFFFFF" d="M49.327,15.521C49.106,15.792,49.08,15.298,49.327,15.521
	L49.327,15.521z"/>
<path fill-rule="evenodd" clip-rule="evenodd" fill="#FFFFFF" d="M21.35,16.398c0.189-0.021,0.313,0.027,0.292,0.22
	C21.501,16.587,21.328,16.591,21.35,16.398z"/>
<path fill-rule="evenodd" clip-rule="evenodd" fill="#FFFFFF" d="M25.366,16.618c0.06,0.037,0.12,0.075,0.22,0.072
	c0,0.049,0,0.097,0,0.146c-0.059,0.039-0.119,0.077-0.22,0.074C25.366,16.813,25.366,16.714,25.366,16.618z"/>
<path fill-rule="evenodd" clip-rule="evenodd" fill="#FFFFFF" d="M27.339,16.618c0.257,0.051,0.077,0.569-0.147,0.584
	C27.197,16.962,27.399,16.922,27.339,16.618z"/>
<path fill-rule="evenodd" clip-rule="evenodd" fill="#FFFFFF" d="M21.421,16.983c0.049,0,0.098,0,0.147,0c0,0.049,0,0.097,0,0.146
	c-0.049,0-0.098,0-0.147,0C21.421,17.08,21.421,17.032,21.421,16.983z"/>
<path fill-rule="evenodd" clip-rule="evenodd" fill="#FFFFFF" d="M39.756,17.275c0.118-0.021,0.126,0.069,0.22,0.073
	C40.005,17.489,39.644,17.455,39.756,17.275z"/>
<path fill-rule="evenodd" clip-rule="evenodd" fill="#FFFFFF" d="M27.705,18.152c0.03-0.183,0.282-0.004,0.218,0.146
	C27.827,18.272,27.809,18.168,27.705,18.152z"/>
<path fill-rule="evenodd" clip-rule="evenodd" fill="#FFFFFF" d="M34.498,18.152c0.073,0,0.147,0,0.219,0c0,0.049,0,0.096,0,0.146
	c-0.072,0-0.146,0-0.219,0C34.498,18.248,34.498,18.201,34.498,18.152z"/>
<path fill-rule="evenodd" clip-rule="evenodd" fill="#FFFFFF" d="M30.407,18.736c0.049,0,0.098,0,0.146,0c0,0.048,0,0.097,0,0.146
	c-0.049,0-0.098,0-0.146,0C30.407,18.833,30.407,18.784,30.407,18.736z"/>
<path fill-rule="evenodd" clip-rule="evenodd" fill="#FFFFFF" d="M29.092,19.539c0.059,0.039,0.119,0.077,0.219,0.073
	c-0.013,0.06-0.073,0.073-0.073,0.146c-0.049,0-0.098,0-0.146,0C29.092,19.685,29.092,19.612,29.092,19.539z"/>
<path fill-rule="evenodd" clip-rule="evenodd" fill="#FFFFFF" d="M32.161,20.05c0.118-0.021,0.126,0.07,0.218,0.074
	c-0.017,0.079-0.145,0.049-0.145,0.147C32.147,20.258,32.171,20.137,32.161,20.05z"/>
<path fill-rule="evenodd" clip-rule="evenodd" fill="#FFFFFF" d="M40.488,21.146c0.178,0.046,0.326,0.306,0,0.292
	C40.488,21.341,40.488,21.243,40.488,21.146z"/>
<path fill-rule="evenodd" clip-rule="evenodd" fill="#FFFFFF" d="M39.391,21.658c-0.021,0.147-0.145,0.193-0.219,0.292
	C38.994,21.881,39.267,21.663,39.391,21.658z"/>
<path fill-rule="evenodd" clip-rule="evenodd" fill="#FFFFFF" d="M38.442,21.804C38.664,21.534,38.688,22.026,38.442,21.804
	L38.442,21.804z"/>
<path fill-rule="evenodd" clip-rule="evenodd" fill="#FFFFFF" d="M38.663,21.877c0.169,0.02,0.168,0.195,0.071,0.292
	C38.566,22.149,38.567,21.974,38.663,21.877z"/>
<path fill-rule="evenodd" clip-rule="evenodd" fill="#FFFFFF" d="M29.603,38.167c0.09,0.032,0.151,0.093,0.147,0.22
	C29.496,38.45,29.499,38.273,29.603,38.167z"/>
<path fill-rule="evenodd" clip-rule="evenodd" fill="#FFFFFF" d="M40.341,39.043c0.214,0.186-0.068,0.49,0.073,0.657
	C40.136,39.735,40.277,39.129,40.341,39.043z"/>
<path fill-rule="evenodd" clip-rule="evenodd" fill="#FFFFFF" d="M41.292,39.189c0.193-0.021,0.24,0.102,0.219,0.293
	C41.404,39.418,41.279,39.372,41.292,39.189z"/>
<path fill-rule="evenodd" clip-rule="evenodd" fill="#FFFFFF" d="M24.49,40.358c0.064-0.153,0.409,0.023,0.365,0.22
	C24.567,40.671,24.679,40.365,24.49,40.358z"/>
<path fill-rule="evenodd" clip-rule="evenodd" fill="#FFFFFF" d="M24.125,42.331c0.089,0.031,0.148,0.094,0.145,0.218
	c-0.117,0.021-0.125-0.066-0.218-0.071C24.065,42.417,24.125,42.404,24.125,42.331z"/>
<path fill-rule="evenodd" clip-rule="evenodd" fill="#FFFFFF" d="M35.739,44.887c-0.043,0.15-0.112,0.276-0.364,0.219
	C35.292,44.811,35.599,44.746,35.739,44.887z"/>
<path fill-rule="evenodd" clip-rule="evenodd" fill="#FFFFFF" d="M48.085,45.91c0.192-0.022,0.188,0.152,0.218,0.293
	c-0.096,0-0.194,0-0.291,0C47.981,46.048,48.062,46.008,48.085,45.91z"/>
<path fill-rule="evenodd" clip-rule="evenodd" fill="#FFFFFF" d="M19.814,46.056c0.049,0,0.098,0,0.146,0c0,0.048,0,0.097,0,0.146
	c-0.048,0-0.098,0-0.146,0C19.814,46.153,19.814,46.104,19.814,46.056z"/>
<path fill-rule="evenodd" clip-rule="evenodd" fill="#FFFFFF" d="M15.725,48.613c0.079,0.018,0.05,0.145,0.146,0.146
	C15.838,48.961,15.641,48.762,15.725,48.613z"/>
<path fill-rule="evenodd" clip-rule="evenodd" fill="#FFFFFF" d="M51.153,49.27c0.012-0.086,0.133-0.062,0.219-0.073
	c0,0.073,0,0.146,0,0.22C51.276,49.391,51.257,49.288,51.153,49.27z"/>
<path fill-rule="evenodd" clip-rule="evenodd" fill="#FFFFFF" d="M38.223,51.169C38.051,51.405,37.928,50.912,38.223,51.169
	L38.223,51.169z"/>
<path fill-rule="evenodd" clip-rule="evenodd" d="M51.372,52.777c-0.049,0-0.097,0-0.146,0c0-0.049,0-0.098,0-0.146
	C51.35,52.603,51.363,52.688,51.372,52.777z"/>
<path fill-rule="evenodd" clip-rule="evenodd" d="M2.211,55.625c0.1,0.231-0.182,0.44,0,0.511c-0.135,0.3-0.45-0.324-0.659,0.146
	c-0.331-0.22-0.501-0.186-0.949-0.073c-0.018-0.299-0.305-0.328-0.584-0.365c0.165-0.231-0.085-0.31,0-0.512
	C0.359,54.529,1.662,55.722,2.211,55.625z"/>
<path fill-rule="evenodd" clip-rule="evenodd" fill="#FFFFFF" d="M64.01,55.699C63.837,55.934,63.713,55.442,64.01,55.699
	L64.01,55.699z"/>
<path fill-rule="evenodd" clip-rule="evenodd" d="M66.127,58.402c0.253,0.544-0.147,1.129-0.876,0.949
	c-0.063-0.278-0.412-0.271-0.366-0.657C65.315,58.731,65.7,58.458,66.127,58.402z"/>
<path fill-rule="evenodd" clip-rule="evenodd" d="M61.526,58.913c-0.051,0.269-0.126,0.556,0,0.804
	c-0.354-0.16-0.613-0.37-1.096-0.219C60.107,58.804,61.109,58.661,61.526,58.913z"/>
<path fill-rule="evenodd" clip-rule="evenodd" d="M28.873,15.886c0.064,0.217,0.109-0.169,0.292-0.071
	c-0.192,0.506,0.203,0.481,0.511,0.657c-0.074,0.391,0.27,0.363,0.219,0.731c0.378,0.001,0.573,0.149,0.804-0.073
	c0.062,0.227,0.103,0.464-0.072,0.658c0.008,0.187,0.272,0.117,0.365,0.218c-0.074,0.123-0.339,0.053-0.365,0.22
	c0.011,0.279,0.385,0.237,0,0.365c0.066,0.199,0.255-0.13,0.365,0.073c0.005,0.119-0.123,0.317,0,0.146
	c0.212,0.176-0.32,0.167-0.074,0.438c0.154-0.311,0.425,0.032,0.438,0.292c0.258,0.041,0.18-0.258,0.438-0.219
	c-0.147,0.384,0.156,0.512,0.583,0.512c-0.033,0.229,0.225,0.166,0.147,0.438c0.928-0.333,1.148-1.443,1.826-1.827
	c0.083-0.394-0.024-0.306-0.073-0.657c0.152-0.043,0.236-0.154,0.366-0.22c-0.115-0.105-0.059-0.38-0.293-0.364
	c0.009-0.309,0.263-0.37,0.365-0.584c0.014-0.16-0.06-0.234-0.219-0.22c0.254-0.258,0.415-0.608,0.512-1.022
	c0.199,0.007,0.146-0.123,0.292,0c-0.26-0.493,0.521-0.911,0.584-1.535c0.372-0.042,0.3-0.527,0.584-0.658
	c0.009-0.132-0.089-0.154-0.073-0.292c0.77-0.847,0.766-2.209,1.68-2.776c0.088-0.253,0.135-0.548,0.439-0.585
	c-0.035-0.229,0.132-0.258,0.072-0.511c0.401-0.135,0.646-0.426,0.803-0.804c0.226,0.051,0.142,0.051,0.365,0
	c-0.064-0.246-0.162-0.008-0.291-0.146c0.359-0.12,0.401-0.512,0.657-0.73C40.38,7.121,40.77,7.06,41,6.902
	c0.512-0.353,0.821-0.93,1.68-0.878c-0.011-0.085-0.133-0.061-0.22-0.072c0.388-0.489,1.147-0.606,1.608-1.022
	c0.384,0.044,0.578-0.103,0.657-0.366c0.15,0.143,0.525,0.098,0.512-0.145c0.391,0.306,0.827-0.053,1.169-0.221
	c0.688,0.104,1.131-0.272,1.606,0.147C48.4,4.284,49.114,3.889,49.4,4.198c0.153-0.064,0.216-0.222,0.438-0.218
	c-0.041,0.162,0.139,0.104,0.146,0.218c1.788-0.075,3.149-0.814,4.749-1.388c0.061-0.083,0.096-0.194,0.073-0.364
	c0.212-0.019,0.251,0.136,0.365,0.218c0.372-0.406,1.225-0.553,1.824-0.292c-0.524,0.243,0.281,0.552-0.145,0.876
	c0.065-0.032,0.131-0.064,0.145-0.146c0.255,0.282-0.521,0.156-0.364,0.584c-0.229-0.037-0.285,0.159-0.438,0
	c-0.043,0.786-0.369,1.286-1.021,1.461c0.061,0.084,0.096,0.195,0.072,0.365c-0.277,0.234-0.568,0.454-0.729,0.804
	c-0.465,0.194-0.918,0.397-1.097,0.876c-0.542,0.091-0.727,0.539-1.169,0.73c0.023,0.462-0.306,0.572-0.512,0.803
	c0.025,0.61-0.285,0.884-0.365,1.389c-0.019,0.287,0.265,0.271,0.219,0.584c-0.369,0.408-0.189,0.699-0.145,1.315
	c-0.06,0.04-0.119,0.075-0.22,0.073c-0.053,0.799-0.32,1.329-0.22,2.045c-0.302,0.355-0.56,0.756-0.584,1.388
	c-0.47,0.503-0.878,1.071-1.096,1.826c-0.41,0.248-0.794,0.521-1.023,0.95c-0.451-0.039-0.671,0.156-0.729,0.512
	c-0.743,0.193-1.221,1.035-2.046,0.364c-0.076,0.062,0.135,0.495,0.365,0.292c-0.053,0.409-0.892,0.033-1.022,0.366
	c0.032,0.064,0.064,0.13,0.146,0.146c0.205,0.012-0.105-0.372,0.074-0.146c0.354-0.023-0.174,0.557-0.293,0.292
	c-0.152,0.067-0.223,0.216-0.219,0.438c-0.172,0.023-0.274,0.115-0.511,0.073c-0.137-0.129,0.086-0.212-0.073-0.364
	c-0.194,0.143,0.022,0.213-0.147,0.583c-0.643,0.031-0.79,0.007-1.313,0.073c-0.162,0.252-0.412,0.416-0.804,0.438
	c-0.194-0.034-0.337-0.312-0.512-0.146c0.013,0.086,0.134,0.062,0.219,0.073c-0.211,0.457-1.024,0.482-1.533,0.512
	c-0.084,0.004-0.04,0.081,0,0.073c-0.012,0.181-0.248,0.021-0.292,0c-0.628,0.638-1.202,0.316-2.119,0.511
	c-0.218,0.294-0.703,0.32-1.096,0.438c-0.162,0.039-0.104-0.141-0.219-0.146c-0.578,0.235-1.298,0.669-2.193,0.948
	c-0.073-0.046-0.075-0.167-0.218-0.145c-0.389,0.627,0.089,1.854,0.074,2.337c-0.023,0.168,0.21,0.081,0.218,0.219
	c-0.096,0.587-0.164,1.386,0,1.826c0.049,0.098,0.155,0.135,0.292,0.147c-0.099,0.265-0.214,0.516-0.292,0.802
	c0.192,0.199,0.499,0.282,0.438,0.731c-0.229,0.034-0.205-0.185-0.292-0.292c-0.189,0.183,0.098,0.33,0,0.437
	c0.063,0.214,0.185-0.095,0.365,0c-0.307,0.735,0.249,1.085-0.219,1.679c-0.054,0.226,0.201,0.141,0.146,0.366
	c-0.186,0.244-0.083,0.8-0.219,1.315c-0.028,0.107-0.191,0.169-0.219,0.293c-0.173,0.758,0.187,1.651-0.292,2.117
	c-0.06,0.207,0.104,0.189,0.074,0.364c-0.2-0.052-0.147,0.146-0.293,0.147c0.11,0.454,0.078,0.738,0.511,0.95
	c0.652-0.136,0.677,0.153,1.315,0.146c0.205,0.264,1.498,0.691,1.973,0.438c0.069,0.126,0.241,0.148,0.292,0.294
	c0.295-0.096,0.819,0,1.023,0.219c0.578-0.33,1.119,0.301,1.679,0.438c0.125,0.025,0.138-0.057,0.146-0.147
	c0.426,0.314,1.314,0.132,1.68,0.658c0.727-0.097,1.034,0.802,1.68,1.022c-0.038,0.059-0.075,0.118-0.073,0.219
	c0.131-0.044,0.304,0.214,0.366,0c0.345,0.386,0.671,0.79,1.097,1.096c-0.235,0.389,0.348,0.311,0.291,0.731
	c0.175,0.029-0.04-0.332,0.22-0.22c-0.01,0.13,0.089,0.154,0.073,0.293c1.038,0.202,1.013,1.47,1.534,2.19
	c0.029,0.153-0.05,0.193-0.074,0.293c0.048,0.219,0.157-0.069,0.293,0c-0.058,0.505,0.556,0.558,0.729,0.95
	c0.036,0.079-0.038,0.213,0,0.291c0.068,0.134,0.379,0.262,0.22,0.512c0.461-0.125,0.722,0.504,1.17,0.365
	c0.204,0.547,0.289,1.188,0.949,1.096c0,0.097,0,0.195,0,0.292c0.121,0,0.243,0,0.364,0c0.061,0.153,0.301,0.285,0.146,0.438
	c0.627,0.029,0.316,0.999,0.949,1.022c-0.083,0.669,0.409,0.761,0.512,1.242c0.552,0.187,0.88,1.269,1.535,0.876
	c0.773,0.335,1.144,0.666,2.044,0.805c0.058,0.064,0.079,0.164,0.073,0.292c0.679,0.27,1.003,0.903,1.826,1.096
	c0.569,0.132,1.369-0.137,1.681,0.145c0.254-0.021-0.007-0.196,0.146-0.219c0.345,0.093,0.524,0.353,0.803,0.513
	c0.731-0.032,1.415-0.13,2.045,0.072c0.029-0.038,0.354-0.108,0.146-0.146c0.029-0.267,0.186,0.075,0.293,0.073
	c0.061-0.002,0.135-0.188,0.292-0.22c0.147-0.029,0.489,0.167,0.438-0.293c0.172,0.025,0.303,0.089,0.438,0.147
	c0.981-0.143,2.053,0.057,1.607,1.241c-0.052,0.138-0.368,0.193-0.365,0.512C65.001,55.667,64.75,56,64.52,56.357
	c-0.219-0.073-0.529-0.056-0.584-0.293c-0.813,0.537-1.536-0.378-2.483,0.219c-0.313-0.396-1.153,0.146-1.461-0.365
	c-0.526,0.298-1.008-0.233-1.534,0.074c0.248-0.271-0.313-0.172-0.438-0.293c-0.138,0.008-0.051,0.241-0.22,0.219
	c-0.222-0.046-0.373-0.162-0.364-0.438c-0.286-0.007-1.364-0.084-1.243-0.365c-0.503,0.122-0.808-0.479-1.46-0.438
	c-0.061-0.273-0.412-0.336-0.219-0.659c-0.086,0.012-0.131-0.015-0.147-0.071c-0.088-0.022-0.252,0.21-0.073,0.218
	c-0.178,0.203-0.205-0.147-0.292-0.218c-0.069-0.058-0.228-0.012-0.292-0.073c-0.047-0.045-0.015-0.188-0.073-0.219
	c-0.154-0.087-0.597,0.013-0.365-0.221c-0.474,0.188-0.974-0.181-1.169-0.511c-0.235,0.211-0.431-0.18-0.584,0
	c-0.171-0.021-0.171-0.198,0-0.219c-0.36-0.383-0.98-0.175-1.096-0.877c-0.064,0.058-0.165,0.078-0.292,0.074
	c-0.253-0.746-0.809-1.188-1.096-1.9c-0.177,0.03-0.158-0.133-0.365-0.072c0.208-0.122,0.272-0.188,0-0.512
	c-0.044-0.053-0.21-0.104-0.292-0.22c-0.033-0.045,0.036-0.178,0-0.22c-0.295-0.327-0.558-0.441-0.877-0.219
	c0.039-0.302-0.234-0.974-0.584-0.584c-0.161-0.01-0.031-0.31-0.073-0.438c-0.379-0.224-0.485-0.795-0.95-0.731
	c-0.064-0.233,0.189-0.15,0.22-0.291c-0.063-0.216-0.109,0.169-0.292,0.073c-0.044-0.249-0.188-0.395-0.438-0.438
	c0.175-0.298-0.145-0.34-0.366-0.438c-0.03-0.504-0.433-0.638-0.438-1.169c-0.031-0.108-0.094,0.029-0.219,0
	c-0.156-0.647-0.537-1.07-0.804-1.606c-0.435-0.198-0.48-0.786-1.022-0.877c-0.222-0.705-0.958-0.893-1.315-1.461
	c0.064-0.13,0.204-0.186,0.147-0.438c-0.246-0.075-0.114,0.228-0.147,0.365c-0.295-0.13-0.32-0.404-0.658-0.146
	c-0.055-0.066-0.078-0.165-0.072-0.293c-0.155,0.222-0.589-0.004-0.731-0.219c-0.727-0.247-1.571-0.375-2.19-0.729
	c-0.482-0.006-0.862-0.284-1.314-0.293c-0.142-0.003-0.211,0.083-0.292,0.073c-0.491-0.068-0.954-0.428-1.462-0.293
	c-0.032-0.434-0.354-0.128-0.438-0.512c-0.125-0.003-0.188,0.055-0.218,0.147c-0.058-0.26-0.486-0.147-0.512-0.438
	c-0.33,0.017-0.785,0.185-0.951-0.146c-0.126-0.021-0.391,0.233-0.364-0.072c-0.206,0.038-0.38,0.107-0.584,0.145
	c-0.167-0.125-0.233-0.352-0.438-0.438c-0.047,0.125-0.221,0.12-0.293,0.221c0.048,0.218,0.156-0.069,0.293,0
	c-0.076,0.402-0.305,0.004-0.585,0c-0.093,0.174-0.155,0.38-0.511,0.292c-0.149,0.235,0.415,0.102,0.146,0.218
	c-0.229,0.359-0.987,0.23-1.095,0.95c-0.55,0.011-0.533,0.588-1.168,0.512c-0.249,0.191-0.34,0.537-0.438,0.877
	c-0.876,0.071-0.843,1.057-1.753,1.096c0,0.096,0,0.194,0,0.291c-0.108-0.104-0.283-0.106-0.22,0.147
	c-0.065-0.033-0.131-0.064-0.146-0.147c-0.133,0.087-0.058,0.383-0.147,0.513c-0.573,0.449-1.746,0.299-2.044,1.022
	c-0.258,0.064-0.18,0.01-0.438,0.071c-0.573,0.864-0.995,1.88-1.753,2.559c-0.636,0.133-0.633,0.452-1.242,0.584
	c-0.062,0.184-0.2,0.286-0.219,0.512c-0.273,0.306-0.714,0.418-1.022,0.658c-0.217,0.167-0.294,0.46-0.584,0.51
	c0.42,1.005-1.318,1.521-0.949,2.483c-0.074,0-0.147,0-0.22,0c-0.164,0.617-0.77,0.79-0.804,1.534
	c-0.445,0.201-0.783,0.114-0.876,0.585c-0.208,0.012-0.143-0.246-0.439-0.146c-0.161,0.357-0.926,0.439-0.949,0.512
	c-0.281,0.092-1.198-0.037-1.315,0.438c-0.429-0.143-0.839,0.317-1.168,0.513c-0.548-0.177-0.814,0.16-1.168-0.073
	c-0.249,0.188-0.583,0.239-0.951,0.292c-0.118,0.018-0.142,0.024-0.146,0.146c-0.714-0.283-1.754,0.066-2.484-0.365
	c-0.191,0.072-0.547,0.122-0.584-0.147c-0.964,0.143-1.692-0.563-2.191,0.147c-0.251-0.247-0.517-0.151-0.803-0.438
	c-0.016-0.318-0.184-0.693,0.073-0.877c0.483,0.127,0.802-0.305,1.535-0.146c0.144-0.05,0.194-0.194,0.219-0.364
	c0.329-0.015,0.562,0.07,0.657,0.292c0.15-0.07,0.29-0.149,0.438-0.22c0.709,0.318,1.054,0.079,1.754,0.146
	c0.206-0.011,0.182,0.206,0.292,0.292c0.113-0.105,0.34-0.098,0.438-0.219c0.117-0.008,0.216,0.179,0.365,0.219
	c0.299,0.079,1.143-0.122,1.096-0.438c0.07,0.003,0.058,0.089,0.072,0.146c0.84-0.173,1.289,0.047,1.754-0.438
	c0.645,0.096,1.25-0.152,1.68-0.438c0.096-0.063,0.093-0.176,0.218-0.291c0.152-0.142,0.407-0.161,0.512-0.293
	c0.032-0.04-0.036-0.188,0-0.22c0.019-0.017,0.136,0.021,0.147,0c0.096-0.18,0.152-0.858,0.365-0.657
	c-0.197-0.379,0.191-0.576,0.438-0.73c0.52-1.477,1.47-2.524,2.484-3.506c0.3,0.17,0.497-0.047,0.657-0.22
	c-0.002-0.07-0.089-0.057-0.146-0.073c0.374-0.21,0.469-0.699,0.949-0.803c0.52-0.357,0.623-1.131,1.169-1.463
	c0.045-0.782,0.79-0.864,1.388-1.094c-0.036-0.23,0.132-0.258,0.074-0.513c0.197-0.053,0.146,0.146,0.292,0.147
	c1.188-0.493,1.995-1.366,2.921-2.119c0.099-0.048,0.136-0.156,0.146-0.292c0.856-0.425,1.387-0.76,1.9-1.462
	c0.557-0.025,0.612-0.556,1.168-0.583c0.638-0.493,1.408-1.259,2.118-1.242c-0.018,0.079-0.146,0.05-0.146,0.146
	c0.194-0.309,1.141,0.146,1.315-0.366c-0.274-0.633-0.167-0.881,0.219-1.534c-0.074-0.097-0.069-0.271-0.219-0.291
	c0.427-0.939,0.252-2.013,0.145-3.141c0.583-0.155-0.057-0.702,0.22-1.097c-0.021-0.149-0.195-0.146-0.292-0.219
	c0.049-0.194,0.139-0.348,0.218-0.512c-0.032-0.107-0.094,0.028-0.218,0c0.164-0.171,0.277-0.337,0.292-0.584
	c0.006-0.097-0.063-0.383-0.073-0.511c-0.004-0.059-0.147-0.135-0.147-0.147c0-0.071,0.142-0.183,0.147-0.218
	c0.038-0.24-0.149-0.607-0.147-0.73c0.004-0.101,0.147-0.205,0.147-0.293c-0.001-0.398-0.214-0.775-0.073-1.169
	c-0.077-0.067-0.022-0.269-0.219-0.219c0.01-0.257,0.209-0.326,0.219-0.584c0.035-0.229-0.196-0.192-0.219-0.365
	c0.168-0.982-0.126-2.089-0.804-2.628c0-0.099,0-0.195,0-0.292c-0.381-0.278-0.648-0.974-1.168-0.877
	c0.117-0.627-0.509-0.515-0.584-0.949c-0.207-0.06-0.188,0.103-0.366,0.073c0.07-0.315-0.422-0.286-0.219-0.512
	c-0.465,0.231-0.826-0.401-1.242-0.22c-0.173-0.507-0.651-0.711-1.241-0.803c-0.041-0.227-0.218-0.317-0.293-0.512
	c-0.274-0.056-0.349,0.089-0.584,0.073c0.271-0.298-0.489-0.138-0.803-0.219c-0.23-0.059-0.295-0.22-0.73-0.292
	c-0.501-0.083-0.633-0.419-1.169-0.292c0.026-0.096,0.13-0.116,0.147-0.219c-0.098,0-0.196,0-0.292,0
	c-0.063,0.054,0.034,0.393-0.293,0.365c-0.262-0.225-0.557-0.417-0.875-0.584c-0.663,0.455-1.245-0.27-2.045-0.146
	c-0.14-0.227-0.322-0.41-0.731-0.366c-0.176-0.432-0.676-0.54-1.169-0.657c0.056-0.665-0.87-0.347-0.73-1.096
	c-0.073,0.047-0.075,0.167-0.219,0.147c-0.139-0.339-0.235-0.674-0.658-0.877c0.102-0.363-0.226-0.879-0.512-1.096
	c0.065-0.406-0.146-0.536-0.364-0.658c0.06-0.19-0.221-0.4,0-0.512c-0.033-0.107-0.093,0.03-0.219,0
	c-0.01-0.75-0.68-1.326-0.73-1.971c-0.557-0.227-0.662-1.014-1.242-1.388c0.008-0.257,0.105-0.021,0.292-0.146
	c0.028-0.275-0.346-0.525-0.146-0.73c-0.584-0.56-0.398-1.486-1.023-2.045c-0.083-0.867-0.457-1.443-0.73-2.119
	c-0.123,0-0.244,0-0.366,0c0.298-0.63-0.623-0.63-0.511-1.314c0.243,0.125,0.316-0.044,0.438-0.22
	C9.767,1.391,9.685,1.253,9.516,1.205c0.258-0.245,0.582-0.007,0.876-0.146c-0.052,0.165-0.065,0.372-0.146,0.512
	c0.213-0.09,0.452,0.004,0.657-0.22c0.022-0.314-0.277-0.307-0.219-0.657c0.303,0.083,0.285-0.154,0.511-0.146
	c0.073-0.291-0.219-0.22-0.146-0.511c0.201-0.131,0.35,0.298,0.804,0.146c-0.036,0.231,0.224,0.165,0.146,0.438
	c0.304-0.117,1.014-0.029,0.804-0.438c0.66,0.45,1.363,0.168,1.972,0c0.162,0.105-0.091,0.179,0.073,0.219
	c0.248-0.353,1.233-0.528,1.826-0.293c0.196,0.08,0.237,0.399,0.438,0.366c0.181,0.01,0.303-0.038,0.365-0.146
	c0.372,0.222,0.556,0.182,0.95,0.365c-0.012,0.084-0.133,0.061-0.22,0.073c0.167,0.231,0.388-0.095,0.585-0.073
	c0.231,0.295,0.65,0.234,0.949,0.585c0.065,0.278-0.12,0.466,0,0.583c-0.012,0.158,0.259,0.034,0.365,0.074
	c0.023,0.254,0.111,0.277,0,0.512c0.199,0.021,0.541-0.104,0.439,0.218c0.236,0.09,0.055-0.237,0.292-0.146
	C21,2.689,20.902,2.714,20.984,2.884c0.538,0.003,0.572,0.154,1.023,0.146c0.243,0.954,0.839,1.593,0.949,2.484
	c-0.16,0.047-0.243,0.096-0.437,0c-0.059,0.35,0.228,0.356,0.365,0.511c0.181-0.062,0.215-0.27,0.365-0.364
	c0.294,0.119,0.489,0.336,0.511,0.73c0.374,0.392,0.676,0.773,0.584,1.314c0.019,0.151,0.322,0.02,0.365,0.146
	c0.024,0.269-0.081,0.406-0.146,0.585c0.74,0.036,0.46,1.186,1.169,1.388c0.166,0.256-0.154,0.24,0,0.437
	c0.073-0.047,0.075-0.167,0.219-0.145c-0.051,0.287,0.226,0.496,0.072,0.804c0.045,0.154,0.489,0.282,0.585,0.146
	c-0.111,0.331,0.461,0.089,0.511,0.438c-0.119,0.121-0.306-0.064-0.584,0c0.111,0.376,0.156,0.491,0.292,0.731
	c0.253,0.059,0.28-0.109,0.512-0.073c0.032,0.138-0.1,0.44,0.146,0.366c0.04,0.161-0.14,0.103-0.146,0.218
	c0.002,0.241,0.207,0.28,0.438,0.292c0.014,0.21,0.009,0.4-0.22,0.366c0.034,0.331,0.359,0.371,0.292,0.803
	c0.137,0.23,0.45,0.282,0.659,0.439C28.342,15.282,29.31,15.453,28.873,15.886z M19.304,1.496
	C19.245,1.938,19.639,1.545,19.304,1.496L19.304,1.496z M25.294,16.252c0.197-0.105,0.483,0.037,0.803-0.074
	c-0.041-0.291-0.041-0.219,0-0.511c-0.253,0.01-0.345-0.143-0.512-0.219c-0.42-0.628-0.77-1.324-1.168-1.973
	c0.056-0.016,0.144-0.002,0.146-0.073c-0.199,0.006-0.146-0.122-0.292,0c-0.206-0.574-0.54-1.017-0.657-1.68
	c-0.845-0.459-0.643-1.302-1.242-1.827c0.068-0.078,0.269-0.023,0.22-0.219c-0.545,0.12-0.763-0.625-1.023-1.024
	c0.115-0.005,0.253,0.01,0.219-0.145c-0.413-0.051-0.291-0.635-0.657-0.731c0.073-0.098,0.198-0.144,0.22-0.292
	c-0.2-0.053-0.148,0.145-0.292,0.147c-0.321-0.507-0.55-1.107-1.023-1.461c0.038-0.283-0.187-0.301-0.22-0.511
	c-0.159-0.085-0.472-0.015-0.511-0.22c0.163-0.032,0.029-0.359,0.073-0.511c-0.646-0.353-1-0.997-1.534-1.461
	c-0.639,0.127-0.836-0.818-1.169-1.242c-0.536-0.005-1.184-0.105-1.607-0.365c-0.243,0.124-0.613,0.118-0.804,0.292
	c-0.252-0.266-0.564,0.214-1.022,0c-0.05,0.194-0.14,0.348-0.219,0.511c0.183,0.096,0.229-0.289,0.292-0.073
	c0.16,0.644,0.344,1.263,0.805,1.606c-0.023,0.172-0.116,0.275-0.074,0.512c0.28,0.107,0.476,0.395,0.219,0.657
	c0.477,0.449,0.406,1.443,0.73,2.045c0.109,0.013,0.27-0.025,0.292,0.073c0.299,1.212,1.413,1.912,1.535,3.068
	c0.181-0.01,0.303,0.037,0.365,0.146c-0.314,0.262,0.354,0.868,0.146,1.242c0.375,0.16,0.44,0.631,0.584,1.023
	c0.293-0.008,0.323,0.373,0.658,0.583c0.263,0.166,0.671,0.145,0.876,0.292c0.303,0.218,0.301,0.727,0.658,0.365
	c-0.014,0.379,0.271,0.46,0.511,0.584c0.229-0.598-0.339-1.248-0.657-1.314c0-0.146,0-0.292,0-0.439
	c-0.532-0.782-0.823-1.807-1.46-2.483c-0.085-0.108-0.085-0.184,0-0.293c-0.873-0.733-1.155-2.058-2.266-2.556
	c0.137-0.336,0.09-0.255,0-0.584c0.417-0.012,0.759,0.272,1.023,0c0.447,1.038,1.674,1.296,2.191,2.264
	c-0.006,0.116-0.187,0.058-0.146,0.219c0.343,0.166,0.224,0.439,0.219,0.657c0.368-0.071,0.269,0.246,0.584,0.147
	c-0.107,0.416,0.316,0.89,0.658,1.095c0.083,0.282,0.215,0.516,0.365,0.731c-0.072,0-0.146,0-0.219,0
	c-0.093,0.507,0.229,0.601,0.439,0.803c-0.039,0.428,0.253,0.525,0.292,0.877c0.002,0.172-0.126,0.215-0.073,0.439
	c0.301,0.113,0.47,0.358,0.511,0.73c0.423-0.304,0.194,0.176,0.512,0c-0.024,0.169,0.012,0.28,0.072,0.365
	c0.224,0.052,0.267-0.075,0.438-0.073c0.299,0.455,1.343,0.167,1.68,0.583c-0.023,0.1-0.104,0.139-0.073,0.292
	c0.25-0.018,0.399-0.137,0.585-0.219C25.322,16.159,25.185,16.22,25.294,16.252z M11.488,3.25c0.049,0,0.097,0,0.146,0
	c0.004-0.093,0.093-0.101,0.073-0.22c-0.048,0-0.097,0-0.145,0C11.557,3.124,11.467,3.132,11.488,3.25z M13.095,4.198
	c-0.024-0.058-0.194-0.088-0.219,0C12.828,4.368,13.161,4.356,13.095,4.198z M13.241,4.419c0.121,0,0.041,0.202,0.146,0.218
	c0.009-0.138,0.242-0.051,0.22-0.218c-0.175,0.028,0.04-0.333-0.22-0.221C13.409,4.342,13.289,4.343,13.241,4.419z M20.107,4.419
	c0.089,0.007,0.173,0.021,0.146,0.145c0.229,0.034,0.234-0.155,0.221-0.365C20.286,4.208,20.217,4.333,20.107,4.419z M19.888,4.784
	c0.174-0.21-0.152-0.389-0.365-0.438C19.52,4.616,19.797,4.607,19.888,4.784z M55.462,4.71c0.17,0.064,0.169-0.373,0.073-0.147
	C55.542,4.667,55.324,4.648,55.462,4.71z M48.012,4.784c0.049,0,0.097,0,0.146,0c0-0.049,0-0.098,0-0.146c-0.05,0-0.098,0-0.146,0
	C48.012,4.686,48.012,4.735,48.012,4.784z M13.241,4.856c0.048,0,0.097,0,0.146,0c0-0.049,0-0.097,0-0.146c-0.048,0-0.098,0-0.146,0
	C13.241,4.759,13.241,4.807,13.241,4.856z M55.098,4.93c0,0.073-0.06,0.087-0.074,0.146c0.141-0.03,0.314-0.026,0.293-0.219
	c-0.089-0.008-0.173-0.021-0.146-0.146c-0.109,0.013-0.271-0.026-0.293,0.073C54.965,4.82,55.044,4.862,55.098,4.93z M22.08,5.075
	c0.048,0,0.097,0,0.146,0c0-0.048,0-0.098,0-0.146c-0.049,0-0.098,0-0.146,0C22.08,4.978,22.08,5.027,22.08,5.075z M12.656,5.952
	c0.181,0.011,0.303-0.038,0.365-0.146c-0.108-0.062-0.157-0.184-0.146-0.365c-0.098,0-0.194,0-0.292,0
	c-0.064,0.34,0.19-0.1,0.219,0.147C12.549,5.537,12.54,5.843,12.656,5.952z M38.442,13.622c-0.443,0.676-0.706,1.534-1.095,2.264
	c-0.178-0.127,0.123-0.391-0.146-0.218c-0.24,0.175,0.267,0.215,0.146,0.511c-0.222,0.851-0.332,1.812-1.096,2.119
	c-0.065-0.176-0.412-0.031-0.438,0.073c0.181-0.01,0.354-0.014,0.365,0.146c-0.149,0.158-0.153,0.459-0.439,0.292
	c0.025,0.171,0.116,0.273,0.074,0.511c-0.402,0.231-0.638,0.628-0.877,1.021c-0.365-0.147-0.515,0.491-0.73,0.732
	c-0.473-0.257-1.236,0.544-0.584,0.803c0.913-0.667,1.78-0.597,2.849-1.169c-0.089-0.008-0.174-0.021-0.146-0.146
	c-0.436-0.096-0.425,0.256-0.803,0.219c-0.319-0.677,0.422-0.814,0.583-1.242c0.764-0.405,1.092-1.247,1.9-1.607
	C38,17.661,38.25,17.643,38.15,17.275c1.571-0.791,2.357-2.367,3.58-3.506c0.145-0.122,0.093,0.006,0.292,0
	c0.076-0.8,1.049-0.705,1.168-1.461c0.497-0.05,0.566-0.798,0.95-0.731c0.029-0.167,0.423-0.599,0.876-0.584
	c0.106-0.333,0.534-0.344,0.877-0.438c0.064,0.153-0.024,0.455,0.292,0.512c0.128-0.264-0.013-0.427-0.219-0.658
	c0.66-0.203,0.988-0.77,1.607-0.657c0.119-0.661,0.798-0.762,1.388-0.95c-0.146,0.145,0.022,0.348,0.073,0.512
	C48.629,9.37,48.617,9.82,48.23,9.897c0.171,0.602-0.591,0.574-0.875,0.803c0.025-0.021,0.168,0.032,0.146,0.073
	c-0.451,0.03-0.478,0.729-1.023,0.439c-0.266,0.707-1.253,0.694-1.533,1.388c-0.619,0.111-0.619,0.841-1.315,0.876
	c-0.259,0.667-1.018,0.833-1.24,1.534c-0.15,0.119-0.3,0.238-0.513,0.292c0,0.146,0,0.292,0,0.439
	c-0.376-0.109-0.49,0.382-0.584,0.511c-0.056,0.076-0.207,0.057-0.292,0.146c-0.293,0.313-0.302,0.967-0.73,0.585
	c-0.136,0.638-0.787,1.087-1.169,1.242c-0.073,0.431-0.69,1.283-1.315,1.169c-0.061,0.206,0.104,0.189,0.073,0.365
	c-0.401,0.305-0.809,0.604-1.241,0.876c0.903,0.349,1.766-0.613,2.41-0.293c-0.051-0.196,0.413-0.464,0.729-0.292
	c-0.004-0.125,0.057-0.187,0.147-0.218c0.26,0.102,0.433-0.186,0.73-0.293c0.29-0.104,0.646-0.121,0.949-0.219
	c0.172,0.022,0.137,0.254,0.366,0.219c0.232-0.27,0.057-0.529,0.291-0.73c0.01,0.185,0.106,0.283,0.293,0.293
	c0.354-0.035,0.455-0.325,0.729-0.439c0.319-0.1,0.155,0.282,0.439,0.218c0.027-0.288,0.235-0.397,0.365-0.584
	c0.349,0.058,0.47-0.114,0.803-0.073c0.012-0.109-0.026-0.271,0.073-0.292c0.11,0.256,0.528-0.05,0.584-0.292
	c0.022-0.192-0.283-0.057-0.219-0.292c0.317,0.059,0.531-0.207,0.657,0.074c0.272-0.653,1.024-0.828,1.534-1.243
	c-0.182-0.302,0.197-0.276,0.293-0.437c0.057-0.096-0.002-0.313,0.071-0.439c0.034-0.057,0.189-0.084,0.221-0.146
	c0.038-0.078-0.029-0.209,0-0.292c0.025-0.077,0.185-0.144,0.218-0.219c0.125-0.271-0.002-0.743,0.439-0.804
	c-0.547-0.315,0.613-1.595,0-1.973c0.522-0.244,0.291-0.847,0.584-1.241c-0.329-0.146,0.029-0.577,0.073-0.803
	c-0.241-0.368,0.33-0.698,0.072-1.097c0.255-0.208,0.486-0.44,0.438-0.949c0.046-0.102,0.282-0.01,0.292-0.146
	c-0.122-0.175,0.365-0.363,0.365-0.659c0.54-0.336,1.081-0.672,1.315-1.313c-0.642-0.051-1.037,0.336-1.534,0.071
	c-0.015,0.068-0.005,0.132-0.072,0.147c-0.615,0.134-1.841-0.292-2.338,0.219c-0.21-0.165-0.432,0.106-0.584-0.146
	c0.075,0.246-0.228,0.114-0.365,0.146c-1.077-0.475-1.649,0.663-2.777,0.292c-0.003,0.101,0.036,0.16,0.074,0.219
	c-0.608,0.048-0.934,0.607-1.314,0.657c0.092,0.168-0.434,0.345-0.658,0.438c-0.158,0.67-0.92,0.736-0.948,1.534
	c-0.099,0-0.196,0-0.293,0c-0.311,0.412-0.67,0.943-1.022,1.096c0.145,0.293-0.179,0.746-0.512,0.803
	c0.128,0.018,0.166,0.126,0.146,0.292c-0.305,0.123-0.292,0.443-0.365,0.731c-0.048,0.185-0.291,0.214-0.366,0.366
	c-0.078,0.156-0.01,0.368-0.073,0.51c-0.108,0.249-0.373,0.271-0.438,0.512c-0.021-0.17-0.196-0.17-0.219,0
	C38.309,13.561,38.43,13.538,38.442,13.622z M23.175,5.952c0.074,0,0.086,0.06,0.146,0.072c-0.007-0.114,0.01-0.252-0.146-0.219
	C23.175,5.854,23.175,5.903,23.175,5.952z M52.249,6.537c0.05,0,0.099,0,0.146,0c0-0.049,0-0.097,0-0.146c-0.048,0-0.097,0-0.146,0
	C52.249,6.44,52.249,6.488,52.249,6.537z M14.336,6.756c0.115-0.007,0.253,0.009,0.219-0.146c-0.049,0-0.097,0-0.145,0
	C14.41,6.683,14.351,6.695,14.336,6.756z M52.687,7.121c0.186,0.077,0.417-0.155,0.219-0.219c-0.032,0.211-0.313-0.303-0.364-0.073
	C52.675,6.839,52.585,7.076,52.687,7.121z M41.218,7.047C41.125,7.043,41.118,6.954,41,6.974
	C40.886,7.155,41.248,7.189,41.218,7.047z M40.196,7.924c0.048,0,0.096,0,0.146,0c0.045-0.004,0.087-0.012,0.073-0.073
	c-0.256-0.02,0.184-0.271-0.073-0.292C40.31,7.699,40.184,7.743,40.196,7.924z M51.883,7.851c0.073,0,0.146,0,0.219,0
	c0-0.048,0-0.097,0-0.146c-0.072,0-0.146,0-0.219,0C51.883,7.754,51.883,7.803,51.883,7.851z M22.591,8.363
	c0.003-0.126-0.057-0.187-0.146-0.219C22.441,8.27,22.5,8.331,22.591,8.363z M15.432,8.801c0.136-0.011,0.245-0.048,0.292-0.147
	c-0.104-0.028-0.124-0.086-0.219,0c-0.017-0.056-0.002-0.143-0.073-0.145C15.347,8.617,15.347,8.694,15.432,8.801z M47.793,9.824
	c0.049,0,0.097,0,0.146,0c0.003-0.093,0.094-0.101,0.073-0.22c-0.049,0-0.098,0-0.147,0C47.861,9.699,47.772,9.707,47.793,9.824z
	 M23.467,10.408c-0.092-0.003-0.101-0.094-0.218-0.073C23.135,10.516,23.497,10.549,23.467,10.408z M37.932,11.138
	c0.048,0,0.097,0,0.145,0c0-0.049,0-0.098,0-0.146c-0.048,0-0.097,0-0.145,0C37.932,11.041,37.932,11.089,37.932,11.138z
	 M43.336,12.746c0.049,0,0.098,0,0.146,0c0-0.049,0-0.096,0-0.146c-0.048,0-0.097,0-0.146,0
	C43.336,12.649,43.336,12.696,43.336,12.746z M26.098,13.037c0.049,0,0.097,0,0.146,0c0.113-0.179-0.248-0.215-0.22-0.072
	C26.068,12.969,26.11,12.976,26.098,13.037z M16.965,13.476c0.126,0.004,0.188-0.055,0.221-0.146
	C17.071,13.337,16.932,13.32,16.965,13.476z M37.054,13.987c0-0.073,0-0.146,0-0.219c-0.171,0.11-0.313-0.024-0.365,0.073
	C36.829,13.873,36.821,14.051,37.054,13.987z M37.932,14.426c0.073-0.244-0.102-0.239-0.293-0.219
	C37.618,14.399,37.74,14.446,37.932,14.426z M42.022,14.426c0,0.073,0,0.147,0,0.22c0.132-0.094,0.514-0.357,0.219-0.439
	C42.254,14.366,42.181,14.439,42.022,14.426z M28.142,14.938c-0.096-0.001-0.065-0.128-0.146-0.147
	c-0.004,0.045-0.011,0.087-0.074,0.074c0.017,0.056,0.003,0.144,0.074,0.146c0.004-0.044,0.011-0.086,0.073-0.072
	C28.069,14.978,28.128,15.021,28.142,14.938z M49.693,15.229c0.048,0,0.096,0,0.146,0c0.113-0.179-0.248-0.215-0.22-0.074
	C49.663,15.161,49.706,15.167,49.693,15.229z M26.244,15.594c-0.028-0.181,0.456-0.216,0.219-0.365
	C26.41,15.329,26.03,15.694,26.244,15.594z M49.327,15.521C49.08,15.298,49.106,15.792,49.327,15.521L49.327,15.521z M21.642,16.618
	c0.021-0.193-0.102-0.241-0.292-0.22C21.328,16.591,21.501,16.587,21.642,16.618z M27.266,16.544
	c-0.075,0.009-0.147-0.315-0.219-0.073C27.151,16.433,27.225,16.756,27.266,16.544z M35.448,16.69c-0.146-0.048-0.313-0.251-0.365,0
	C35.192,16.743,35.389,16.746,35.448,16.69z M25.366,16.91c0.101,0.003,0.161-0.035,0.22-0.074c0-0.049,0-0.097,0-0.146
	c-0.1,0.002-0.16-0.035-0.22-0.072C25.366,16.714,25.366,16.813,25.366,16.91z M27.192,17.202c0.224-0.015,0.404-0.533,0.147-0.584
	C27.399,16.922,27.197,16.962,27.192,17.202z M21.421,17.129c0.049,0,0.098,0,0.147,0c0-0.049,0-0.097,0-0.146
	c-0.049,0-0.098,0-0.147,0C21.421,17.032,21.421,17.08,21.421,17.129z M39.976,17.348c-0.094-0.003-0.102-0.094-0.22-0.073
	C39.644,17.455,40.005,17.489,39.976,17.348z M48.23,17.713c0.005,0.078,0.095,0.058,0.073-0.073
	C48.055,17.506,47.959,17.601,48.23,17.713z M27.923,18.297c0.064-0.149-0.188-0.328-0.218-0.146
	C27.809,18.168,27.827,18.272,27.923,18.297z M34.498,18.297c0.073,0,0.147,0,0.219,0c0-0.049,0-0.097,0-0.146
	c-0.072,0-0.146,0-0.219,0C34.498,18.201,34.498,18.248,34.498,18.297z M30.407,18.881c0.049,0,0.098,0,0.146,0
	c0-0.048,0-0.098,0-0.146c-0.049,0-0.098,0-0.146,0C30.407,18.784,30.407,18.833,30.407,18.881z M29.092,19.758
	c0.048,0,0.097,0,0.146,0c0-0.073,0.06-0.086,0.073-0.146c-0.101,0.004-0.16-0.034-0.219-0.073
	C29.092,19.612,29.092,19.685,29.092,19.758z M32.233,20.271c0-0.098,0.128-0.068,0.145-0.147c-0.092-0.004-0.1-0.094-0.218-0.074
	C32.171,20.137,32.147,20.258,32.233,20.271z M40.488,21.439c0.326,0.013,0.178-0.247,0-0.292
	C40.488,21.243,40.488,21.341,40.488,21.439z M35.739,21.439c-0.205,0.013-0.184-0.288-0.291,0
	C35.654,21.424,35.63,21.726,35.739,21.439z M39.172,21.951c0.074-0.099,0.198-0.145,0.219-0.292
	C39.267,21.663,38.994,21.881,39.172,21.951z M38.442,21.804C38.688,22.026,38.664,21.534,38.442,21.804L38.442,21.804z
	 M38.734,22.169c0.097-0.097,0.098-0.272-0.071-0.292C38.567,21.974,38.566,22.149,38.734,22.169z M29.75,38.386
	c0.004-0.127-0.057-0.188-0.147-0.22C29.499,38.273,29.496,38.45,29.75,38.386z M40.415,39.701
	c-0.142-0.167,0.141-0.472-0.073-0.657C40.277,39.129,40.136,39.735,40.415,39.701z M41.51,39.482
	c0.021-0.191-0.025-0.314-0.219-0.293C41.279,39.372,41.404,39.418,41.51,39.482z M24.855,40.578
	c0.043-0.196-0.301-0.373-0.365-0.22C24.679,40.365,24.567,40.671,24.855,40.578z M24.052,42.477
	c0.093,0.005,0.101,0.093,0.218,0.071c0.003-0.124-0.056-0.187-0.145-0.218C24.125,42.404,24.065,42.417,24.052,42.477z
	 M48.012,46.203c0.097,0,0.195,0,0.291,0c-0.03-0.141-0.025-0.315-0.218-0.293C48.062,46.008,47.981,46.048,48.012,46.203z
	 M19.814,46.203c0.049,0,0.098,0,0.146,0c0-0.05,0-0.099,0-0.146c-0.048,0-0.098,0-0.146,0
	C19.814,46.104,19.814,46.153,19.814,46.203z M15.87,48.758c-0.096-0.001-0.066-0.128-0.146-0.146
	C15.641,48.762,15.838,48.961,15.87,48.758z M51.372,49.417c0-0.074,0-0.146,0-0.22c-0.086,0.012-0.207-0.013-0.219,0.073
	C51.257,49.288,51.276,49.391,51.372,49.417z M64.01,55.699C63.713,55.442,63.837,55.934,64.01,55.699L64.01,55.699z"/>
<path fill-rule="evenodd" clip-rule="evenodd" d="M31.43,19.173c-0.022-0.13,0.284-0.004,0.218,0.147
	C31.487,19.36,31.545,19.181,31.43,19.173z"/>
<path fill-rule="evenodd" clip-rule="evenodd" fill="#84AF01" d="M25.294,16.033c-0.187,0.083-0.335,0.201-0.585,0.219
	c-0.03-0.153,0.05-0.193,0.073-0.292c-0.337-0.417-1.381-0.129-1.68-0.583c-0.171-0.002-0.214,0.125-0.438,0.073
	c-0.061-0.085-0.096-0.196-0.072-0.365c-0.317,0.176-0.089-0.304-0.512,0c-0.041-0.372-0.21-0.618-0.511-0.73
	c-0.053-0.224,0.075-0.267,0.073-0.439c-0.038-0.352-0.33-0.449-0.292-0.877c-0.211-0.202-0.533-0.295-0.439-0.803
	c0.073,0,0.147,0,0.219,0c-0.15-0.215-0.282-0.449-0.365-0.731c-0.341-0.205-0.765-0.679-0.658-1.095
	c-0.315,0.099-0.216-0.218-0.584-0.147c0.005-0.218,0.124-0.491-0.219-0.657c-0.041-0.162,0.14-0.103,0.146-0.219
	c-0.517-0.968-1.744-1.226-2.191-2.264c-0.264,0.272-0.605-0.012-1.023,0c0.09,0.329,0.137,0.248,0,0.584
	c1.11,0.498,1.393,1.823,2.266,2.556c-0.085,0.109-0.085,0.185,0,0.293c0.637,0.676,0.928,1.701,1.46,2.483c0,0.146,0,0.292,0,0.439
	c0.318,0.067,0.886,0.716,0.657,1.314c-0.24-0.124-0.524-0.205-0.511-0.584c-0.356,0.361-0.354-0.147-0.658-0.365
	c-0.205-0.147-0.613-0.127-0.876-0.292c-0.335-0.21-0.364-0.591-0.658-0.583c-0.144-0.393-0.208-0.864-0.584-1.023
	c0.208-0.374-0.46-0.979-0.146-1.242c-0.062-0.109-0.185-0.156-0.365-0.146c-0.122-1.157-1.235-1.856-1.535-3.068
	c-0.022-0.099-0.184-0.06-0.292-0.073c-0.324-0.602-0.253-1.596-0.73-2.045c0.257-0.262,0.061-0.55-0.219-0.657
	c-0.042-0.237,0.05-0.34,0.074-0.512c-0.46-0.344-0.645-0.962-0.805-1.606c-0.063-0.216-0.109,0.169-0.292,0.073
	c0.079-0.163,0.169-0.316,0.219-0.511c0.458,0.214,0.771-0.266,1.022,0c0.19-0.175,0.561-0.169,0.804-0.292
	c0.423,0.26,1.071,0.36,1.607,0.365c0.333,0.423,0.53,1.369,1.169,1.242c0.534,0.465,0.888,1.108,1.534,1.461
	c-0.044,0.151,0.089,0.479-0.073,0.511c0.039,0.205,0.352,0.135,0.511,0.22c0.034,0.21,0.258,0.228,0.22,0.511
	c0.473,0.354,0.702,0.954,1.023,1.461c0.145-0.002,0.092-0.2,0.292-0.147c-0.022,0.149-0.147,0.195-0.22,0.292
	c0.367,0.096,0.245,0.68,0.657,0.731c0.034,0.155-0.104,0.139-0.219,0.145c0.26,0.399,0.478,1.144,1.023,1.024
	c0.049,0.195-0.151,0.141-0.22,0.219c0.599,0.524,0.396,1.368,1.242,1.827c0.117,0.663,0.452,1.105,0.657,1.68
	c0.146-0.122,0.094,0.006,0.292,0c-0.002,0.071-0.089,0.057-0.146,0.073c0.398,0.649,0.749,1.345,1.168,1.973
	c0.167,0.076,0.258,0.229,0.512,0.219c-0.041,0.292-0.041,0.22,0,0.511c-0.32,0.11-0.606-0.032-0.803,0.074
	C25.185,16.22,25.322,16.159,25.294,16.033z"/>
<path fill-rule="evenodd" clip-rule="evenodd" fill="#FFFFFF" d="M55.536,4.563c0.096-0.226,0.097,0.211-0.073,0.147
	C55.324,4.648,55.542,4.667,55.536,4.563z"/>
<path fill-rule="evenodd" clip-rule="evenodd" fill="#84AF01" d="M38.223,13.549c0.022-0.17,0.198-0.17,0.219,0
	c0.065-0.241,0.33-0.263,0.438-0.512c0.063-0.142-0.005-0.354,0.073-0.51c0.075-0.152,0.318-0.182,0.366-0.366
	c0.073-0.289,0.061-0.609,0.365-0.731c0.02-0.165-0.019-0.274-0.146-0.292c0.333-0.057,0.656-0.51,0.512-0.803
	c0.353-0.152,0.712-0.684,1.022-1.096c0.097,0,0.194,0,0.293,0c0.028-0.798,0.79-0.864,0.948-1.534
	c0.225-0.093,0.75-0.27,0.658-0.438c0.381-0.05,0.706-0.609,1.314-0.657c-0.038-0.059-0.077-0.118-0.074-0.219
	c1.128,0.37,1.7-0.768,2.777-0.292c0.138-0.032,0.44,0.1,0.365-0.146c0.152,0.252,0.374-0.019,0.584,0.146
	c0.497-0.511,1.723-0.085,2.338-0.219c0.067-0.015,0.058-0.079,0.072-0.147c0.497,0.265,0.893-0.122,1.534-0.071
	c-0.234,0.642-0.775,0.978-1.315,1.313c0,0.295-0.487,0.484-0.365,0.659c-0.01,0.135-0.246,0.044-0.292,0.146
	c0.048,0.509-0.184,0.741-0.438,0.949c0.258,0.399-0.313,0.729-0.072,1.097c-0.044,0.226-0.402,0.657-0.073,0.803
	c-0.293,0.394-0.062,0.998-0.584,1.241c0.613,0.378-0.547,1.658,0,1.973c-0.441,0.061-0.314,0.533-0.439,0.804
	c-0.033,0.075-0.192,0.142-0.218,0.219c-0.029,0.083,0.038,0.213,0,0.292c-0.031,0.062-0.187,0.089-0.221,0.146
	c-0.073,0.126-0.015,0.343-0.071,0.439c-0.096,0.161-0.475,0.135-0.293,0.437c-0.51,0.415-1.262,0.59-1.534,1.243
	c-0.126-0.28-0.34-0.015-0.657-0.074c-0.064,0.235,0.241,0.1,0.219,0.292c-0.056,0.243-0.474,0.548-0.584,0.292
	c-0.1,0.021-0.062,0.184-0.073,0.292c-0.333-0.042-0.454,0.13-0.803,0.073c-0.13,0.187-0.338,0.296-0.365,0.584
	c-0.284,0.064-0.12-0.318-0.439-0.218c-0.274,0.114-0.375,0.404-0.729,0.439c-0.187-0.01-0.283-0.108-0.293-0.293
	c-0.234,0.201-0.059,0.46-0.291,0.73c-0.229,0.035-0.194-0.196-0.366-0.219c-0.304,0.098-0.659,0.115-0.949,0.219
	c-0.298,0.107-0.471,0.395-0.73,0.293c-0.091,0.031-0.151,0.093-0.147,0.218c-0.316-0.172-0.78,0.096-0.729,0.292
	c-0.645-0.32-1.507,0.642-2.41,0.293c0.433-0.272,0.84-0.571,1.241-0.876c0.031-0.176-0.134-0.159-0.073-0.365
	c0.625,0.114,1.242-0.738,1.315-1.169c0.382-0.154,1.033-0.604,1.169-1.242c0.429,0.382,0.438-0.272,0.73-0.585
	c0.085-0.089,0.236-0.07,0.292-0.146c0.094-0.129,0.208-0.62,0.584-0.511c0-0.147,0-0.292,0-0.439
	c0.213-0.054,0.362-0.174,0.513-0.292c0.223-0.701,0.981-0.867,1.24-1.534c0.696-0.035,0.696-0.765,1.315-0.876
	c0.28-0.694,1.268-0.681,1.533-1.388c0.546,0.29,0.572-0.409,1.023-0.439c0.022-0.041-0.12-0.094-0.146-0.073
	c0.284-0.229,1.046-0.202,0.875-0.803c0.387-0.077,0.399-0.527,0.805-0.584c-0.051-0.164-0.22-0.367-0.073-0.512
	c-0.59,0.188-1.269,0.29-1.388,0.95c-0.619-0.113-0.947,0.454-1.607,0.657c0.206,0.23,0.347,0.394,0.219,0.658
	c-0.316-0.057-0.228-0.359-0.292-0.512c-0.343,0.095-0.771,0.106-0.877,0.438c-0.453-0.015-0.847,0.417-0.876,0.584
	c-0.384-0.067-0.453,0.681-0.95,0.731c-0.119,0.756-1.092,0.661-1.168,1.461c-0.199,0.006-0.147-0.122-0.292,0
	c-1.223,1.139-2.009,2.716-3.58,3.506c0.101,0.368-0.149,0.386-0.146,0.657c-0.809,0.36-1.137,1.202-1.9,1.607
	c-0.161,0.428-0.902,0.565-0.583,1.242c0.378,0.037,0.367-0.315,0.803-0.219c-0.027,0.124,0.058,0.138,0.146,0.146
	c-1.069,0.572-1.936,0.502-2.849,1.169c-0.651-0.259,0.111-1.06,0.584-0.803c0.215-0.241,0.365-0.879,0.73-0.732
	c0.24-0.393,0.475-0.79,0.877-1.021c0.042-0.238-0.049-0.34-0.074-0.511c0.286,0.167,0.29-0.135,0.439-0.292
	c-0.012-0.16-0.185-0.156-0.365-0.146c0.026-0.104,0.373-0.249,0.438-0.073c0.764-0.308,0.874-1.268,1.096-2.119
	c0.12-0.295-0.387-0.336-0.146-0.511c0.27-0.173-0.031,0.091,0.146,0.218c0.389-0.73,0.651-1.588,1.095-2.264
	C38.43,13.538,38.309,13.561,38.223,13.549z"/>
<path fill-rule="evenodd" clip-rule="evenodd" fill="#FFFFFF" d="M52.542,6.829c0.051-0.229,0.332,0.284,0.364,0.073
	c0.198,0.064-0.033,0.295-0.219,0.219C52.585,7.076,52.675,6.839,52.542,6.829z"/>
<path fill-rule="evenodd" clip-rule="evenodd" fill="#FFFFFF" d="M36.689,13.841c0.052-0.097,0.194,0.037,0.365-0.073
	c0,0.073,0,0.146,0,0.219C36.821,14.051,36.829,13.873,36.689,13.841z"/>
<path fill-rule="evenodd" clip-rule="evenodd" fill="#FFFFFF" d="M42.241,14.207c0.295,0.082-0.087,0.345-0.219,0.439
	c0-0.073,0-0.146,0-0.22C42.181,14.439,42.254,14.366,42.241,14.207z"/>
<path fill-rule="evenodd" clip-rule="evenodd" fill="#FFFFFF" d="M28.069,14.938c-0.062-0.014-0.069,0.028-0.073,0.072
	c-0.071-0.002-0.057-0.089-0.074-0.146c0.063,0.013,0.07-0.028,0.074-0.074c0.081,0.019,0.049,0.146,0.146,0.147
	C28.128,15.021,28.069,14.978,28.069,14.938z"/>
<path fill-rule="evenodd" clip-rule="evenodd" fill="#FFFFFF" d="M26.463,15.229c0.237,0.148-0.247,0.184-0.219,0.365
	C26.03,15.694,26.41,15.329,26.463,15.229z"/>
<path fill-rule="evenodd" clip-rule="evenodd" fill="#FFFFFF" d="M27.047,16.471c0.072-0.242,0.145,0.082,0.219,0.073
	C27.225,16.756,27.151,16.433,27.047,16.471z"/>
<path fill-rule="evenodd" clip-rule="evenodd" fill="#FFFFFF" d="M35.083,16.69c0.053-0.251,0.22-0.048,0.365,0
	C35.389,16.746,35.192,16.743,35.083,16.69z"/>
<path fill-rule="evenodd" clip-rule="evenodd" fill="#FFFFFF" d="M48.303,17.64c0.021,0.131-0.068,0.151-0.073,0.073
	C47.959,17.601,48.055,17.506,48.303,17.64z"/>
<path fill-rule="evenodd" clip-rule="evenodd" fill="#FFFFFF" d="M35.448,21.439c0.107-0.288,0.086,0.013,0.291,0
	C35.63,21.726,35.654,21.424,35.448,21.439z"/>
<path fill-rule="evenodd" clip-rule="evenodd" d="M37.054,45.106c0.01,0.131-0.09,0.154-0.072,0.293
	c0.317,0.104,0.335-0.251,0.511-0.073c-0.145,0.263,0.162,0.263,0.146,0.584c-0.168,0.149-0.304,0.328-0.585,0.364
	c0-0.096,0-0.193,0-0.291c-0.222,0.208-0.729,0.308-0.876,0c-0.13,0.369-0.67-0.003-0.804,0.438
	c-0.271-0.134-0.263-0.093-0.658-0.072c-0.438-0.577-0.453-1.148-0.95-1.607c0.32-0.896,1.272-1.163,1.828-1.826
	c0.481-0.046,0.748,0.139,1.021-0.072c0.121,0.462,0.376,0.792,0.511,1.241c-0.293,0.034-0.417,0.282-0.73,0.365
	c-0.219,0.059-0.813-0.366-0.658,0.365C36.137,45.269,36.52,44.873,37.054,45.106z M35.375,45.106
	c0.252,0.058,0.321-0.068,0.364-0.219C35.599,44.746,35.292,44.811,35.375,45.106z"/>
<path fill-rule="evenodd" clip-rule="evenodd" d="M24.709,50.22c0.278,0.379,0.17,1.145,0.512,1.46
	c-1.276,0.117-0.496,1.958,0.512,1.315c-0.128-1.176,0.857-1.236,1.388-1.753c0.014,0.276,0.33,0.253,0.511,0.365
	c0.076,0.411,0.083,0.892,0.365,1.096c0.053,0.198-0.146,0.146-0.147,0.292c0.011,0.211,0.313,0.126,0.293,0.365
	c-0.385,0.022-0.432,0.472-0.657,0.656c-0.119,0.101-0.42-0.059-0.364,0.221c-0.183,0.011-0.227-0.114-0.366-0.146
	c-0.224,0.287-0.677,0.346-0.876,0.656c-0.254-0.239-0.699-0.024-1.096,0c-0.014-0.328-0.183-0.162-0.073-0.51
	c-0.25,0.332-0.37-0.3-0.804-0.074c-0.079-0.188-0.185-0.351-0.365-0.438c-0.363-0.096-0.311,0.227-0.585,0.221
	c0.129-0.432,0.009-0.957-0.219-1.242c0.179-0.593,0.268-1.285,0.804-1.681C23.571,50.297,24.446,50.55,24.709,50.22z"/>
<path fill-rule="evenodd" clip-rule="evenodd" fill="#FFFFFF" d="M13.386,4.198c0.26-0.113,0.044,0.249,0.22,0.221
	c0.022,0.167-0.211,0.081-0.22,0.218c-0.105-0.016-0.025-0.218-0.146-0.218C13.289,4.343,13.409,4.342,13.386,4.198z"/>
<path fill-rule="evenodd" clip-rule="evenodd" d="M38.223,50.074c0.326,0.051,0.389,0.335,0.657,0.072
	c0.242,0.586,0.892,0.766,1.461,1.023c0.048,0.315-0.125,0.41-0.219,0.584c-0.663-0.102-1.028,0.787-1.606,0.292
	c-0.126,0.094-0.288,0.152-0.293,0.365c-0.254-0.211-0.272-0.21-0.73-0.218c-0.373-0.398-1.097-0.833-0.729-1.535
	c0.327-0.217,0.538,0.282,0.729-0.072c0.206,0.012,0.091,0.347,0.365,0.291C38.027,50.656,38.072,50.312,38.223,50.074z
	 M38.223,51.169C37.928,50.912,38.051,51.405,38.223,51.169L38.223,51.169z"/>
<path fill-rule="evenodd" clip-rule="evenodd" d="M36.47,58.181c0.047,0.13-0.838,0.532-1.022,0.073
	c-1.199,0.434-0.532-1.127,0.219-1.169c0.007-0.198-0.121-0.146,0-0.292c0.455,0.14,0.301-0.332,0.657-0.292
	c-0.016,0.321,0.098,0.291,0.22,0.584c0.125,0.003,0.189-0.053,0.22-0.145c0.074,0.216,0.165,0.416,0.438,0.438
	c-0.168,0.207-0.118,0.418-0.146,0.876C36.858,58.083,36.636,58.386,36.47,58.181z"/>
<path fill-rule="evenodd" clip-rule="evenodd" d="M51.153,54.895c0.257,0.337-0.307,0.772,0.073,0.949
	c-0.296,0.518-0.371,1.326,0.146,1.681c0.146-0.001,0.093-0.2,0.292-0.146c0.059-0.3-0.111-0.375-0.073-0.657
	c0.154-0.155,0.286,0.086,0.439,0.146c0.308-0.051-0.07-0.331,0.219-0.365c0.313-0.021,0.323,0.263,0.365,0.512
	c1.007-0.15,1.363,0.641,2.119,0.512c0,0.146,0,0.292,0,0.438c-0.172,0.179-0.137-0.109-0.366-0.073
	c-0.279,0.183-0.309,0.616-0.657,0.729c-0.691-0.679-1.458,0.263-2.338-0.146c0.123-0.145-0.007-0.092,0-0.293
	c-0.171-0.001-0.214,0.127-0.438,0.073c0.036-0.34-0.285-0.102-0.511-0.291c0.12-0.656-0.349-0.723-0.365-1.242
	c-0.012-0.086-0.134-0.062-0.219-0.072C49.86,55.646,50.297,55.062,51.153,54.895z"/>
<path fill-rule="evenodd" clip-rule="evenodd" d="M17.77,59.716c-0.118-0.241-0.561-0.244-0.731,0
	c-0.288-0.098-0.22-0.438-0.292-0.585c-0.146,0-0.292,0-0.438,0c-0.291-1.401,1.686-1.109,2.192-0.438
	C18.466,59.169,18.285,59.553,17.77,59.716z"/>
</svg>
